<?xml version="1.0" encoding="UTF-8" standalone="no"?>
<!DOCTYPE svg  PUBLIC '-//W3C//DTD SVG 1.1//EN'  'http://www.w3.org/Graphics/SVG/1.1/DTD/svg11.dtd'>
<svg xmlns="http://www.w3.org/2000/svg">
<defs>
<font id="ChronicleDeck-Roman" horiz-adv-x="478">
<font-face underline-position="-50" font-weight="325" descent="-200" panose-1="0 0 0 0 0 0 0 0 0 0" units-per-em="1000" unicode-range="U+0020-2212" bbox="-61 -251 1002 953" x-height="459" underline-thickness="50" font-family="ChronicleDeck" ascent="800" cap-height="678"/>
<missing-glyph horiz-adv-x="1000"/>
<glyph glyph-name=".notdef" horiz-adv-x="1000"/>
<glyph glyph-name=".null" horiz-adv-x="0"/>
<glyph glyph-name="nonmarkingreturn" horiz-adv-x="333"/>
<glyph glyph-name="space" horiz-adv-x="184" unicode=" "/>
<glyph glyph-name="exclam" horiz-adv-x="278" unicode="!" d="M139 -16q-25 0 -42.5 17.5t-17.5 41.5q0 25 17.5 42t42.5 17t42 -17t17 -42q0 -24 -17 -41.5t-42 -17.5zM127 186q-6 106 -24.5 255.5t-18.5 192.5q0 71 55 71q25 0 40 -18.5t15 -52.5q0 -44 -19 -193.5t-25 -254.5h-23z"/>
<glyph glyph-name="quotedbl" horiz-adv-x="405" unicode='&quot;' d="M82 427l-18 8l20 91q22 106 30 123q16 33 44 33q22 0 33.5 -14t11.5 -32q0 -11 -5 -24q-11 -27 -66 -109zM252 427l-18 8l20 91q25 112 30 123q16 33 44 33q22 0 33.5 -14t11.5 -32q0 -11 -5 -24q-11 -27 -66 -109z"/>
<glyph glyph-name="numbersign" horiz-adv-x="683" unicode="#" d="M269 439l-45 -232h192l46 232h-193zM318 683l-42 -212h192l42 212h39l-42 -212h143v-32h-150l-45 -232h152v-32h-159l-42 -216h-39l42 216h-192l-42 -216h-38l42 216h-142v32h149l46 232h-151v32h157l42 212h38z"/>
<glyph glyph-name="dollar" horiz-adv-x="549" unicode="$" d="M160 487q0 -39 24.5 -61t80.5 -43v212q-50 -5 -77.5 -33.5t-27.5 -74.5zM419 156q0 44 -26.5 68.5t-94.5 49.5v-228q61 4 91 35t30 75zM265 -62v81q-85 2 -146.5 38t-61.5 91q0 25 15.5 43.5t45.5 18.5q25 0 40.5 -16t15.5 -39q0 -36 -38 -55q14 -19 51.5 -34.5 t77.5 -19.5v239l-2 1q-40 13 -54.5 18t-46 20.5t-44.5 29.5t-25 38.5t-12 55.5q0 72 53 119t131 55v71h33v-70q80 -2 134 -37.5t54 -82.5q0 -26 -13.5 -43t-37.5 -17q-28 0 -42.5 15.5t-14.5 38.5q0 16 9.5 30t24.5 20q-45 45 -114 49v-224q3 -1 8.5 -2.5t8.5 -2.5 q36 -12 51.5 -17.5t45 -20t43 -29t25 -40t11.5 -56.5q0 -69 -49 -124t-144 -61v-81h-33z"/>
<glyph glyph-name="percent" horiz-adv-x="811" unicode="%" d="M256 651q67 0 95 -57q39 -18 91 -18q96 0 178 90h33l-456 -692h-51l426 617l-3 3q-56 -49 -144 -49q-31 0 -61 6q1 -8 1 -26q0 -44 -20.5 -99.5t-64.5 -102.5t-99 -47q-64 0 -99 39t-35 103q0 84 64 158.5t145 74.5zM333 526q0 18 -3 34q-48 15 -88 50q-52 -18 -85 -88.5 t-33 -139.5q0 -77 62 -77q40 0 75.5 38.5t53.5 89t18 93.5zM583 -15q-64 0 -99.5 39.5t-35.5 102.5q0 83 64.5 158t144.5 75q50 0 80 -33t30 -93q0 -44 -20.5 -99.5t-65 -102.5t-98.5 -47zM587 14q60 0 103.5 75.5t43.5 145.5q0 89 -62 89t-104.5 -76.5t-42.5 -156.5 q0 -77 62 -77z"/>
<glyph glyph-name="ampersand" horiz-adv-x="744" unicode="&amp;" d="M480 190q84 164 162 164q34 0 52 -18.5t18 -48.5q0 -25 -14.5 -40.5t-39.5 -15.5q-21 0 -35.5 13.5t-14.5 32.5q0 16 7 27l-3 4q-58 -27 -115 -142q39 -70 66 -98t60 -28t71 30l12 -15q-76 -72 -131 -72q-47 0 -73.5 24t-59.5 83q-82 -107 -191 -107q-96 0 -144.5 50.5 t-48.5 119.5t47 114t132 74q-26 30 -39 47.5t-24.5 44.5t-11.5 54q0 70 48.5 114.5t124.5 44.5q65 0 105.5 -35t40.5 -86q0 -49 -32.5 -85t-111.5 -79q90 -80 143 -171zM252 326q-52 -28 -75.5 -64t-23.5 -92q0 -59 37.5 -97t95.5 -38q43 0 75.5 19t66.5 59 q-68 118 -176 213zM319 377q51 35 69.5 68t18.5 78q0 100 -84 100q-38 0 -62.5 -26.5t-24.5 -70.5q0 -59 83 -149z"/>
<glyph glyph-name="quotesingle" horiz-adv-x="235" unicode="&apos;" d="M82 427l-18 8l20 91q22 106 30 123q16 33 44 33q22 0 33.5 -14t11.5 -32q0 -11 -5 -24q-11 -27 -66 -109z"/>
<glyph glyph-name="parenleft" horiz-adv-x="372" unicode="(" d="M388 -162q-62 27 -115 66t-98.5 94t-72 130.5t-26.5 162.5t26.5 162t72 130t98.5 94t115 66l12 -20q-113 -60 -173 -161.5t-60 -270.5q0 -170 60 -271.5t173 -161.5z"/>
<glyph glyph-name="parenright" horiz-adv-x="372" unicode=")" d="M-17 -162l-11 20q113 60 173 161.5t60 271.5q0 169 -60 270.5t-173 161.5l11 20q62 -27 115.5 -66t99 -94t72 -130t26.5 -162t-26.5 -162.5t-72 -130.5t-99 -94t-115.5 -66z"/>
<glyph glyph-name="asterisk" horiz-adv-x="430" unicode="*" d="M271 362q-8 -2 -10 -2q-24 0 -35 36q-6 18 -10 124l-11 3q-67 -85 -81 -94q-19 -13 -33 -13q-13 0 -23 13q-6 7 -6 17q0 20 24 36q19 13 115 48v10q-111 45 -115 48q-24 16 -24 37q0 10 6 17q10 13 24 13q15 0 32 -14q15 -11 81 -94l11 3q5 108 10 124q11 35 35 35 q7 0 10 -1q21 -6 21 -31q0 -12 -4 -23q-4 -14 -65 -107l6 -7q7 2 35 9.5t52.5 13t33.5 5.5q46 0 46 -33t-46 -33q-9 0 -33.5 5.5t-52.5 13t-35 9.5l-6 -7q3 -4 20 -30.5t29.5 -47t15.5 -29.5q4 -11 4 -23q0 -23 -21 -31z"/>
<glyph glyph-name="plus" horiz-adv-x="541" unicode="+" d="M53 298v36h199v198h39v-198h197v-36h-197v-201h-39v201h-199z"/>
<glyph glyph-name="comma" horiz-adv-x="224" unicode="," d="M30 -148l-12 19q53 25 83.5 59t34.5 68l-5 3q-12 -10 -28 -10q-22 0 -36 15t-14 37q0 24 16.5 41.5t40.5 17.5q31 0 50 -21t19 -55q0 -108 -149 -174z"/>
<glyph glyph-name="hyphen" horiz-adv-x="366" unicode="-" d="M55 227v54h256v-54h-256z"/>
<glyph glyph-name="period" horiz-adv-x="224" unicode="." d="M113 -16q-25 0 -42.5 17.5t-17.5 41.5q0 25 17.5 42t42.5 17q24 0 41.5 -17t17.5 -42q0 -24 -17.5 -41.5t-41.5 -17.5z"/>
<glyph glyph-name="slash" horiz-adv-x="444" unicode="/" d="M3 -209l206 467l202 467h39l-206 -467l-202 -467h-39z"/>
<glyph glyph-name="zero" horiz-adv-x="587" unicode="0" d="M298 12q74 0 107.5 73.5t33.5 232.5q0 158 -37 232.5t-113 74.5q-74 0 -107.5 -73.5t-33.5 -233.5q0 -157 37 -231.5t113 -74.5zM293 -15q-110 0 -180.5 95t-70.5 236q0 140 72 237.5t180 97.5q110 0 180.5 -95t70.5 -236q0 -140 -72 -237.5t-180 -97.5z"/>
<glyph glyph-name="one" horiz-adv-x="413" unicode="1" d="M45 0v23q70 1 97.5 11t27.5 37v469q0 38 -25.5 52t-102.5 14v21l219 18v-574q0 -27 27 -37t98 -11v-23h-341z"/>
<glyph glyph-name="two" horiz-adv-x="546" unicode="2" d="M58 0v62l153 131q102 87 137.5 147.5t35.5 135.5q0 72 -33 110.5t-89 38.5q-37 0 -69.5 -18t-47.5 -46q44 -20 44 -65q0 -27 -16.5 -47t-44.5 -20q-29 0 -47.5 20t-18.5 49q0 63 63 108t145 45q103 0 158.5 -49.5t55.5 -126.5q0 -63 -45 -121.5t-154 -144.5l-160 -128v-5 h233q56 0 78.5 19.5t43.5 84.5l20 -1l-4 -179h-438z"/>
<glyph glyph-name="three" horiz-adv-x="540" unicode="3" d="M257 -15q-85 0 -149.5 36.5t-64.5 94.5q0 28 18 47.5t46 19.5q27 0 42 -18.5t15 -43.5q0 -37 -36 -59q44 -50 132 -50q133 0 133 155q0 73 -43 109t-141 36h-21v30h11q101 0 139.5 36.5t38.5 114.5q0 132 -121 132q-76 0 -114 -55q40 -18 40 -59q0 -25 -15 -44t-42 -19 q-26 0 -43.5 19t-17.5 45q0 57 59 98t143 41q103 0 157 -43t54 -110q0 -54 -46.5 -99.5t-140.5 -67.5v-3q99 -8 151 -48.5t52 -108.5q0 -79 -63 -132.5t-173 -53.5z"/>
<glyph glyph-name="four" horiz-adv-x="558" unicode="4" d="M304 549l-228 -288h232v288h-4zM544 205h-146v-134q0 -26 22.5 -36.5t71.5 -11.5v-23h-282v23q49 1 73.5 11.5t24.5 36.5v134h-280v47l312 390h58v-381h146v-56z"/>
<glyph glyph-name="five" horiz-adv-x="535" unicode="5" d="M261 -15q-86 0 -149 37t-63 96q0 29 18.5 49t47.5 20q27 0 41.5 -17.5t14.5 -42.5q0 -40 -41 -65q43 -50 124 -50q135 0 135 178q0 167 -144 167q-64 0 -135 -43l-18 14l12 309h365l-10 -82h-321l-9 -203q66 37 138 37q113 0 168 -53.5t55 -138.5q0 -82 -62.5 -147 t-166.5 -65z"/>
<glyph glyph-name="six" horiz-adv-x="552" unicode="6" d="M293 11q65 0 92.5 52t27.5 149q0 88 -28 131.5t-89 43.5q-59 0 -102 -49.5t-43 -145.5q0 -83 41 -132t101 -49zM287 -15q-107 0 -172.5 75t-65.5 189q0 163 101 264q60 60 131.5 94t179.5 50v-21q-56 -13 -104 -35t-94 -58.5t-76.5 -94.5t-38.5 -131l4 -1 q22 48 67.5 74.5t96.5 26.5q87 0 142.5 -53t55.5 -139q0 -101 -61.5 -170.5t-165.5 -69.5z"/>
<glyph glyph-name="seven" horiz-adv-x="509" unicode="7" d="M104 -10v13l329 559h-260q-48 0 -65.5 -22t-33.5 -95h-22l7 192h431v-20l-173 -366l-119 -261h-94z"/>
<glyph glyph-name="eight" horiz-adv-x="538" unicode="8" d="M156 504q0 -50 36.5 -84.5t120.5 -63.5q46 24 64.5 57.5t18.5 80.5q0 59 -33.5 94.5t-90.5 35.5q-53 0 -84.5 -30t-31.5 -90zM235 297l-12 4q-43 -21 -68 -59t-25 -88q0 -66 36.5 -104t100.5 -38t101 31.5t37 96.5q0 54 -38 89t-132 68zM47 150q0 50 39 94t105 70 q-123 58 -123 161q0 75 58 125.5t147 50.5q88 0 147 -43t59 -104q0 -53 -32.5 -88.5t-104.5 -70.5q85 -34 120 -77t35 -101q0 -76 -66.5 -129t-152.5 -53q-108 0 -169.5 46t-61.5 119z"/>
<glyph glyph-name="nine" horiz-adv-x="552" unicode="9" d="M269 250q52 0 91.5 52.5t39.5 139.5q0 86 -36.5 135t-95.5 49q-63 0 -96.5 -53t-33.5 -144q0 -87 35 -133t96 -46zM90 -21v22q54 12 102 34.5t95 59t78 94.5t39 131l-4 1q-22 -48 -66.5 -74.5t-93.5 -26.5q-87 0 -144.5 56.5t-57.5 146.5q0 93 66.5 160.5t169.5 67.5 q107 0 167.5 -73.5t60.5 -189.5q0 -163 -100 -263q-60 -60 -132 -94.5t-180 -51.5z"/>
<glyph glyph-name="colon" horiz-adv-x="229" unicode=":" d="M115 -16q-25 0 -42.5 17.5t-17.5 41.5q0 25 17.5 42t42.5 17t42 -17t17 -42q0 -24 -17 -41.5t-42 -17.5zM115 283q-25 0 -42.5 17.5t-17.5 41.5q0 25 17.5 42t42.5 17t42 -17t17 -42q0 -24 -17 -41.5t-42 -17.5z"/>
<glyph glyph-name="semicolon" horiz-adv-x="229" unicode=";" d="M30 -148l-12 19q53 25 83.5 59t34.5 68l-5 3q-12 -10 -28 -10q-22 0 -36 15t-14 37q0 24 16.5 41.5t40.5 17.5q31 0 50 -21t19 -55q0 -108 -149 -174zM117 283q-25 0 -42.5 17.5t-17.5 41.5q0 25 17.5 42t42.5 17q24 0 41.5 -17t17.5 -42q0 -24 -17.5 -41.5t-41.5 -17.5z "/>
<glyph glyph-name="less" horiz-adv-x="540" unicode="&lt;" d="M82 298v35l377 201v-40l-337 -179l337 -177v-41z"/>
<glyph glyph-name="equal" horiz-adv-x="541" unicode="=" d="M58 394v35h425v-35h-425zM58 201v36h425v-36h-425z"/>
<glyph glyph-name="greater" horiz-adv-x="540" unicode="&gt;" d="M459 298l-377 -201v40l337 179l-337 177v41l377 -201v-35z"/>
<glyph glyph-name="question" horiz-adv-x="457" unicode="?" d="M195 -16q-25 0 -42.5 17.5t-17.5 41.5q0 25 17.5 42t42.5 17t42 -17t17 -42q0 -24 -17 -41.5t-42 -17.5zM176 186l-2 156q94 24 128 64.5t34 120.5q0 151 -123 151q-73 0 -110 -56q46 -17 46 -63q0 -27 -16.5 -46.5t-45.5 -19.5t-47.5 20.5t-18.5 48.5q0 62 58 102.5 t144 40.5q100 0 155.5 -50.5t55.5 -125.5q0 -73 -57.5 -125.5t-167.5 -79.5v-138h-33z"/>
<glyph glyph-name="at" horiz-adv-x="909" unicode="@" d="M404 111q57 0 105 90l47 158q-3 45 -21 69t-45 24q-45 0 -81.5 -45.5t-54 -100.5t-17.5 -99q0 -96 67 -96zM469 -146q-179 0 -293.5 112t-114.5 295q0 184 120 303.5t307 119.5q150 0 255 -96.5t105 -241.5q0 -134 -66.5 -209.5t-156.5 -75.5q-56 0 -87.5 24t-33.5 63 l-4 1q-57 -79 -124 -79q-54 0 -85.5 35.5t-31.5 97.5q0 99 69 186.5t160 87.5q59 0 84 -62h3l17 54l75 10l-48 -139l-41 -146q-6 -21 -6 -39q0 -31 17.5 -47.5t48.5 -16.5q71 0 124.5 70t53.5 183q0 132 -95 223t-238 91q-172 0 -281 -113.5t-109 -278.5q0 -167 104 -276 t277 -109q136 0 248 84l15 -21q-118 -90 -268 -90z"/>
<glyph glyph-name="A" horiz-adv-x="661" unicode="A" d="M193 286h212l-98 283h-4zM469 102l-54 156h-233l-35 -91q-24 -64 -24 -89t18.5 -37.5t62.5 -19.5v-21h-225v21q49 12 76.5 44t58.5 108l208 521h34l212 -580q18 -49 39.5 -67.5t76.5 -25.5v-21h-300v21q51 3 72 13t21 32q0 14 -8 36z"/>
<glyph glyph-name="B" horiz-adv-x="654" unicode="B" d="M242 28h98q100 0 137 39.5t37 125.5q0 70 -45 110.5t-138 40.5h-89v-316zM242 372h87q85 0 120.5 33.5t35.5 103.5q0 69 -34 105t-123 36h-86v-278zM38 0v23q63 2 86 15t23 42v518q0 29 -23 42.5t-86 15.5v22h284q140 0 202 -45.5t62 -118.5q0 -54 -41.5 -97t-132.5 -55 v-4q100 -6 152.5 -51t52.5 -112q0 -85 -68.5 -140t-217.5 -55h-293z"/>
<glyph glyph-name="C" horiz-adv-x="688" unicode="C" d="M375 -17q-146 0 -237.5 96t-91.5 252q0 155 100.5 259t247.5 104q93 0 170 -42l35 44h21v-223h-21q-72 194 -216 194q-96 0 -162 -85t-66 -247q0 -78 22 -139t58.5 -96.5t79 -53.5t87.5 -18q81 0 139 45.5t91 117.5l24 -13q-37 -83 -107 -139t-174 -56z"/>
<glyph glyph-name="D" horiz-adv-x="742" unicode="D" d="M242 28h74q155 0 213 72.5t58 244.5q0 165 -66 235t-206 70h-73v-622zM38 0v23q63 2 86 15t23 42v518q0 29 -23 42.5t-86 15.5v22h288q178 0 274 -90t96 -237q0 -70 -21.5 -132t-64 -111.5t-113.5 -78.5t-162 -29h-297z"/>
<glyph glyph-name="E" horiz-adv-x="668" unicode="E" d="M38 0v23q63 2 86 15t23 42v518q0 29 -23 42.5t-86 15.5v22h550l3 -200l-22 -1q-34 97 -71.5 134.5t-118.5 37.5h-137v-283h61q62 0 91.5 24t48.5 101h20v-278h-20q-19 77 -48 100.5t-92 23.5h-61v-308h137q95 0 141.5 43t81.5 146l22 -1l-5 -217h-581z"/>
<glyph glyph-name="F" horiz-adv-x="639" unicode="F" d="M38 0v23q63 2 86 15t23 42v518q0 29 -23 42t-86 15v23h547l8 -205l-21 -1q-33 99 -76.5 138t-128.5 39h-125v-291h64q61 0 88 23t47 99h20v-275h-20q-19 78 -46 101t-89 23h-64v-249q0 -29 23 -42t88 -15v-23h-315z"/>
<glyph glyph-name="G" horiz-adv-x="726" unicode="G" d="M402 -17q-94 0 -173.5 38.5t-131 121t-51.5 194.5q0 155 104.5 256t245.5 101q95 0 169 -35l34 38h21v-207h-21q-68 177 -214 177q-95 0 -162.5 -82.5t-67.5 -245.5q0 -84 21 -149t56.5 -103t76.5 -57t85 -19q94 0 141 41v179q0 30 -23 44.5t-85 16.5v22h276v-22 q-47 -3 -60 -14.5t-13 -46.5v-190q-45 -27 -109.5 -42.5t-118.5 -15.5z"/>
<glyph glyph-name="H" horiz-adv-x="804" unicode="H" d="M38 0v23q63 2 86 15t23 42v519q0 29 -23 42t-86 15v22h304v-22q-65 -2 -82.5 -13.5t-17.5 -43.5v-233h321v233q0 32 -17.5 43.5t-82.5 13.5v22h303v-22q-62 -2 -85 -15t-23 -42v-519q0 -29 22.5 -42t85.5 -15v-23h-303v23q65 2 82.5 13.5t17.5 43.5v257h-321v-257 q0 -32 17 -43.5t83 -13.5v-23h-304z"/>
<glyph glyph-name="I" horiz-adv-x="407" unicode="I" d="M46 0v23q65 2 87.5 15t22.5 42v518q0 29 -22.5 42.5t-87.5 15.5v22h315v-22q-65 -2 -87.5 -15.5t-22.5 -42.5v-518q0 -29 22.5 -42t87.5 -15v-23h-315z"/>
<glyph glyph-name="J" horiz-adv-x="535" unicode="J" d="M208 -17q-77 0 -124.5 36t-47.5 89q0 29 18.5 50t45.5 21q26 0 43 -17t17 -43q0 -24 -14.5 -43.5t-40.5 -25.5q36 -33 89 -33q60 0 86.5 40.5t26.5 119.5v421q0 31 -21 43.5t-92 14.5v22h314v-22q-64 -2 -85 -15t-21 -43v-399q0 -99 -48.5 -157.5t-145.5 -58.5z"/>
<glyph glyph-name="K" horiz-adv-x="738" unicode="K" d="M242 316l234 232q41 41 41 66q0 34 -76 43v21h266v-21q-59 -9 -95.5 -32.5t-108.5 -93.5l-129 -125l209 -285q41 -56 67 -74t79 -26v-21h-290v21q72 9 72 35q0 15 -21 44l-177 246l-71 -69v-197q0 -32 16 -43.5t75 -13.5v-23h-295v23q63 2 86 15t23 42v519q0 29 -23 42 t-86 15v22h304v-22q-65 -2 -82.5 -13.5t-17.5 -43.5v-283z"/>
<glyph glyph-name="L" horiz-adv-x="612" unicode="L" d="M38 0v23q63 2 86 15t23 42v518q0 29 -23 42.5t-86 15.5v22h308v-22q-64 -2 -84 -15t-20 -43v-569h100q98 0 144 40t83 151l22 -1l-8 -219h-545z"/>
<glyph glyph-name="M" horiz-adv-x="940" unicode="M" d="M38 0v21q68 12 90.5 40.5t22.5 100.5v408q0 82 -113 86v22h229l208 -542h5l202 542h220v-22q-62 -2 -85 -15.5t-23 -42.5v-518q0 -29 23 -42t85 -15v-23h-298v23q61 2 78 14t17 43v534h-5l-234 -615h-27l-245 616h-5v-453q0 -73 21 -101t90 -40v-21h-256z"/>
<glyph glyph-name="N" horiz-adv-x="768" unicode="N" d="M621 -17l-437 592h-1v-413q0 -74 22 -102t94 -39v-21h-261v21q68 12 90.5 40.5t22.5 100.5v403q0 88 -113 91v22h191l389 -530h1v369q0 71 -25.5 100.5t-97.5 39.5v21h261v-21q-66 -12 -86 -39.5t-20 -100.5v-534h-30z"/>
<glyph glyph-name="O" horiz-adv-x="739" unicode="O" d="M374 11q210 0 210 328q0 172 -59 250t-160 78q-209 0 -209 -328t218 -328zM370 -17q-136 0 -230 98t-94 256q0 157 95.5 257t228.5 100q136 0 229.5 -98t93.5 -255t-95.5 -257.5t-227.5 -100.5z"/>
<glyph glyph-name="P" horiz-adv-x="620" unicode="P" d="M242 326h74q97 0 131.5 41.5t34.5 126.5q0 74 -35.5 115t-127.5 41h-77v-324zM38 0v23q63 2 86 15t23 42v518q0 29 -23 42.5t-86 15.5v22h278q271 0 271 -184q0 -81 -66.5 -138.5t-211.5 -57.5h-67v-218q0 -30 24 -42.5t91 -14.5v-23h-319z"/>
<glyph glyph-name="Q" horiz-adv-x="739" unicode="Q" d="M407 -15q31 -11 61 -37.5t49 -51.5t43.5 -44t47.5 -19q27 0 27 25q0 11 -20.5 28t-20.5 38t15 36.5t37 15.5q23 0 40 -19t17 -45q0 -49 -38.5 -79.5t-101.5 -30.5q-37 0 -69.5 15t-55 36t-42.5 42.5t-41 36.5t-42 15q-56 0 -137 -76l-18 19q74 80 148 99 q-114 22 -187 115.5t-73 232.5q0 157 95.5 257t227.5 100q136 0 230 -98t94 -255q0 -145 -83 -242.5t-203 -113.5zM373 11q210 0 210 328q0 172 -58.5 250t-159.5 78q-210 0 -210 -328q0 -172 59 -250t159 -78z"/>
<glyph glyph-name="R" horiz-adv-x="683" unicode="R" d="M242 325v-245q0 -31 20 -43t86 -14v-23h-310v23q63 2 86 15t23 42v518q0 29 -23 42.5t-86 15.5v22h286q142 0 207 -45.5t65 -119.5q0 -138 -189 -171v-3q93 -7 126.5 -43t45.5 -113l10 -68q10 -56 31 -73t81 -19v-22q-30 -8 -67 -8q-84 0 -112.5 26.5t-35.5 98.5l-8 86 q-7 73 -39 97t-116 24h-81zM242 353h86q94 0 128.5 39t34.5 118q0 71 -39.5 105.5t-134.5 34.5h-75v-297z"/>
<glyph glyph-name="S" horiz-adv-x="553" unicode="S" d="M52 -19v230h23q42 -97 93.5 -147.5t121.5 -50.5q72 0 110 39.5t38 90.5q0 60 -39.5 91t-141.5 67q-92 33 -122 52q-70 45 -70 134q0 94 64.5 150t162.5 56q74 0 138 -27l32 32h17v-205h-23q-61 172 -180 172q-55 0 -91.5 -33.5t-36.5 -91.5q0 -56 39 -84.5t133 -60.5 q37 -12 56.5 -19.5t49.5 -24t45 -34t27 -46.5t12 -66q0 -40 -12.5 -77.5t-38 -70t-71.5 -52.5t-107 -20q-83 0 -155 36l-56 -40h-18z"/>
<glyph glyph-name="T" horiz-adv-x="665" unicode="T" d="M171 0v23q65 2 90.5 15t25.5 42v570h-50q-61 0 -99 -41.5t-77 -138.5l-22 2l6 206h578l7 -206l-22 -2q-37 93 -75.5 136.5t-100.5 43.5h-51v-570q0 -29 25.5 -42t90.5 -15v-23h-326z"/>
<glyph glyph-name="U" horiz-adv-x="755" unicode="U" d="M386 -17q-119 0 -187.5 54.5t-68.5 147.5v413q0 29 -23 42.5t-85 15.5v22h304v-22q-65 -2 -83 -14t-18 -44v-392q0 -96 55 -140t145 -44q78 0 128 48q53 55 53 151v296q0 71 -25.5 100.5t-98.5 39.5v21h262v-21q-67 -12 -86.5 -39.5t-19.5 -100.5v-317q0 -94 -66 -155.5 t-186 -61.5z"/>
<glyph glyph-name="V" horiz-adv-x="682" unicode="V" d="M326 -19l-220 588q-17 45 -37.5 61.5t-76.5 26.5v21h299v-21q-51 -3 -72 -13.5t-21 -31.5q0 -12 6 -29l170 -473h4l156 411q19 51 19 74q0 27 -20.5 40.5t-67.5 21.5v21h234v-21q-50 -10 -75.5 -39.5t-56.5 -106.5l-208 -530h-33z"/>
<glyph glyph-name="W" horiz-adv-x="989" unicode="W" d="M488 512l-16 52q-16 51 -37 68.5t-71 24.5v21h279v-21q-47 -3 -65.5 -12.5t-18.5 -29.5q0 -14 6 -32l142 -448h4l123 384q16 51 16 74q0 29 -20 42.5t-69 21.5v21h241v-21q-53 -10 -82 -41.5t-52 -103.5l-173 -531h-33l-157 480l-179 -480h-34l-182 589q-14 45 -35 61 t-78 26v21h285v-21q-44 -3 -61.5 -13t-17.5 -30q0 -13 6 -31l131 -450h4z"/>
<glyph glyph-name="X" horiz-adv-x="685" unicode="X" d="M366 393l104 151q28 40 28 65q0 42 -75 48v21h248v-21q-54 -8 -86 -32.5t-86 -98.5l-115 -160l182 -272q26 -38 46 -50.5t77 -22.5v-21h-297v21q80 7 80 37q0 15 -16 39l-133 207l-119 -170q-26 -38 -26 -64q0 -42 74 -49v-21h-248v21q53 9 85.5 32.5t86.5 98.5l129 179 l-166 250q-26 38 -48.5 52.5t-80.5 23.5v21h300v-21q-78 -4 -78 -39q0 -16 15 -39z"/>
<glyph glyph-name="Y" horiz-adv-x="655" unicode="Y" d="M361 331l122 210q31 54 31 73q0 18 -18 27.5t-60 15.5v21h229v-21q-49 -9 -76.5 -30.5t-64.5 -83.5l-146 -244v-219q0 -29 23 -42t87 -15v-23h-314v23q64 2 87 15t23 42v204l-174 301q-20 35 -41 49.5t-65 22.5v21h292v-21q-88 -4 -88 -39q0 -16 12 -37z"/>
<glyph glyph-name="Z" horiz-adv-x="624" unicode="Z" d="M41 0l-1 15l422 635h-188q-58 0 -99 -40t-89 -137l-22 2l20 203h497l1 -15l-422 -635h213q33 0 57 9t47 36t39.5 55.5t46.5 86.5l22 -2l-19 -213h-525z"/>
<glyph glyph-name="bracketleft" horiz-adv-x="354" unicode="[" d="M98 -161v904h278v-29h-202v-846h202v-29h-278z"/>
<glyph glyph-name="backslash" horiz-adv-x="444" unicode="\" d="M402 -209l-202 467l-207 467h40l202 -467l206 -467h-39z"/>
<glyph glyph-name="bracketright" horiz-adv-x="354" unicode="]" d="M-23 -161v29h203v846h-203v29h279v-904h-279z"/>
<glyph glyph-name="asciicircum" horiz-adv-x="343" unicode="^" d="M25 533l139 206h23l132 -206h-28l-119 125l-120 -125h-27z"/>
<glyph glyph-name="underscore" horiz-adv-x="440" unicode="_" d="M-2 0v36h444v-36h-444z"/>
<glyph glyph-name="grave" horiz-adv-x="238" unicode="`" d="M152 533l-89 89q-41 41 -41 67q0 17 11.5 28.5t27.5 11.5q18 0 31 -16t29 -55l54 -125h-23z"/>
<glyph glyph-name="a" d="M215 40q55 0 100 63v140q-108 -24 -142.5 -48.5t-34.5 -74.5q0 -36 19 -58t58 -22zM167 -6q-59 0 -90.5 30.5t-31.5 74.5q0 69 60 102q33 18 82.5 32.5t86 23t41.5 12.5v46q0 67 -21 96t-69 29q-51 0 -78 -30q19 -28 19 -49q0 -23 -14 -38.5t-39 -15.5q-23 0 -36.5 15.5 t-13.5 38.5q0 43 50.5 73t122.5 30q163 0 163 -140v-235q0 -30 9 -44t32 -14q14 0 36 6l4 -17q-52 -24 -91 -24q-38 0 -52.5 17.5t-17.5 59.5h-4q-70 -79 -148 -79z" unicode="a"/>
<glyph glyph-name="b" horiz-adv-x="534" unicode="b" d="M275 17q64 0 95.5 58t31.5 163q0 82 -36 134.5t-95 52.5q-63 0 -111 -50v-271q15 -43 46 -65t69 -22zM73 -12l3 88v556q0 26 -16.5 37.5t-64.5 12.5v21l165 4v-305q65 65 147 65q87 0 137.5 -62.5t50.5 -161.5q0 -104 -58.5 -177.5t-153.5 -73.5q-82 0 -151 49l-42 -53 h-17z"/>
<glyph glyph-name="c" horiz-adv-x="453" unicode="c" d="M247 -8q-94 0 -151.5 65.5t-57.5 165.5q0 105 65.5 174.5t162.5 69.5q73 0 116 -33t43 -73q0 -25 -13.5 -41t-36.5 -16q-25 0 -39.5 14.5t-14.5 37.5q0 37 30 54q-31 33 -83 33q-61 0 -100 -52t-39 -146q0 -92 41.5 -148.5t116.5 -56.5q71 0 134 73l15 -13 q-35 -51 -79 -79.5t-110 -28.5z"/>
<glyph glyph-name="d" horiz-adv-x="539" unicode="d" d="M274 34q50 0 96 44v309q-40 56 -104 56q-59 0 -97 -58.5t-38 -158.5q0 -85 38 -138.5t105 -53.5zM234 -8q-90 0 -143 66t-53 166q0 105 63.5 174t161.5 69q61 0 107 -27v192q0 26 -16.5 37.5t-64.5 12.5v21l165 4v-650q0 -19 15.5 -27t57.5 -9v-21l-155 -4v53 q-59 -57 -138 -57z"/>
<glyph glyph-name="e" d="M247 443q-104 0 -116 -167l216 3q1 10 1 30q0 62 -25.5 98t-75.5 36zM254 -8q-99 0 -157.5 66t-58.5 167q0 103 62 172.5t154 69.5q89 0 137.5 -56.5t48.5 -138.5q0 -3 -0.5 -9.5t-0.5 -9.5h-309v-17v-1q0 -87 41 -142t116 -55q42 0 75 22t67 64l15 -13q-33 -55 -77 -87 t-113 -32z" unicode="e"/>
<glyph glyph-name="f" horiz-adv-x="318" unicode="f" d="M32 0v22q44 1 58.5 8t14.5 29v361h-85v19l85 21v28q0 119 58 177q48 48 110 48q54 0 83.5 -22t29.5 -53q0 -23 -13.5 -37.5t-35.5 -14.5t-38 14.5t-16 46.5q0 8 7 31q-13 11 -31 11q-25 0 -42 -17q-28 -28 -28 -129v-86h128v-36h-128v-362q0 -21 20 -28t78 -9v-22h-255z "/>
<glyph glyph-name="g" horiz-adv-x="469" unicode="g" d="M233 464q47 0 87 -18q40 76 97 76q26 0 40.5 -13.5t14.5 -34.5q0 -16 -11 -27.5t-27 -11.5q-17 0 -29 13t-12 35q-34 -6 -55 -46q73 -42 73 -124q0 -70 -52 -112.5t-126 -42.5q-29 0 -63 8q-54 -22 -54 -49q0 -38 102 -38h51q97 0 144 -29t47 -94q0 -64 -62 -110.5 t-175 -46.5q-90 0 -143.5 30t-53.5 75q0 35 34.5 64.5t89.5 37.5v4q-47 10 -66.5 28.5t-19.5 50.5q0 48 78 87q-89 38 -89 133q0 70 52.5 112.5t127.5 42.5zM237 181q86 0 86 130q0 61 -26 96t-69 35q-86 0 -86 -131q0 -130 95 -130zM249 -179q65 0 108.5 30t43.5 77 q0 70 -136 70h-83q-86 -22 -86 -82q0 -42 37.5 -68.5t115.5 -26.5z"/>
<glyph glyph-name="h" horiz-adv-x="554" unicode="h" d="M18 0v22q44 1 59 8t15 29v573q0 26 -16.5 37.5t-64.5 12.5v21l165 4v-336q83 93 175 93q54 0 85.5 -35.5t31.5 -101.5v-268q0 -22 14.5 -29t58.5 -8v-22h-221v22q38 1 51 8t13 29v235q0 63 -22 90.5t-70 27.5q-67 0 -116 -70v-283q0 -22 12.5 -29t50.5 -8v-22h-221z"/>
<glyph glyph-name="i" horiz-adv-x="286" unicode="i" d="M34 0v22q44 1 58.5 8t14.5 29v327q0 24 -15.5 36.5t-56.5 13.5v21l156 4v-402q0 -22 14.5 -29t60.5 -8v-22h-232zM145 566q-25 0 -40.5 15.5t-15.5 41.5t15.5 43t40.5 17t40.5 -16t15.5 -42t-15.5 -42.5t-40.5 -16.5z"/>
<glyph glyph-name="j" horiz-adv-x="279" unicode="j" d="M48 -201q-48 0 -78.5 20t-30.5 51q0 23 14.5 38.5t36.5 15.5q23 0 38 -15.5t15 -40.5q0 -19 -13 -36q13 -8 30 -8q49 0 49 93v467q0 28 -16 40t-65 12v21l165 4v-457q0 -66 -9 -103t-36 -64q-38 -38 -100 -38zM147 566q-26 0 -41 15.5t-15 41.5t15.5 43t40.5 17t40.5 -16 t15.5 -42t-15.5 -42.5t-40.5 -16.5z"/>
<glyph glyph-name="k" horiz-adv-x="516" unicode="k" d="M176 181v-122q0 -21 11 -28.5t42 -8.5v-22h-211v22q44 1 59 8t15 29v573q0 26 -16.5 37.5t-64.5 12.5v21l165 4v-491l151 154q21 21 21 37q0 25 -58 32v20h207v-20q-38 -6 -63 -20.5t-66 -53.5l-82 -78l148 -204q27 -36 43 -47t50 -15v-21h-220v21q49 6 49 25 q0 13 -13 30l-112 158z"/>
<glyph glyph-name="l" horiz-adv-x="285" unicode="l" d="M31 0v22q44 1 58.5 8t14.5 29v573q0 26 -16.5 37.5t-64.5 12.5v21l165 4v-648q0 -22 14.5 -29t58.5 -8v-22h-230z"/>
<glyph glyph-name="m" horiz-adv-x="840" unicode="m" d="M326 0v22q37 1 49 8t12 29v235q0 62 -22 90t-68 28q-60 0 -109 -70v-283q0 -22 10 -29t47 -8v-22h-214v22q44 1 58.5 8t14.5 29v327q0 24 -16 36.5t-57 13.5v21l155 4v-91q81 94 170 94q43 0 72 -24.5t38 -69.5q81 94 175 94q53 0 83 -35t30 -102v-268q0 -22 14.5 -29 t58.5 -8v-22h-215v22q37 1 47.5 8t10.5 29v235q0 62 -21 90t-67 28q-56 0 -112 -68q0 -3 0.5 -8t0.5 -6v-271q0 -22 13 -29t57 -8v-22h-215z"/>
<glyph glyph-name="n" horiz-adv-x="566" unicode="n" d="M31 0v22q44 1 58.5 8t14.5 29v327q0 24 -16 36.5t-57 13.5v21l155 4v-91q81 94 177 94q54 0 85.5 -35.5t31.5 -101.5v-268q0 -22 14.5 -29t58.5 -8v-22h-221v22q38 1 51 8t13 29v237q0 62 -22 89t-70 27q-67 0 -116 -70v-283q0 -22 12.5 -29t50.5 -8v-22h-220z"/>
<glyph glyph-name="o" horiz-adv-x="526" unicode="o" d="M268 17q126 0 126 213t-135 213q-126 0 -126 -213q0 -109 36 -161t99 -52zM264 -8q-100 0 -163 65.5t-63 170.5q0 103 65 171t161 68q99 0 161.5 -65.5t62.5 -169.5t-64.5 -172t-159.5 -68z"/>
<glyph glyph-name="p" horiz-adv-x="542" unicode="p" d="M284 18q58 0 92 57t34 160q0 84 -33.5 137t-91.5 53q-61 0 -113 -57v-264q27 -86 112 -86zM15 -192v21q44 1 58.5 8.5t14.5 29.5v519q0 24 -16 36.5t-57 13.5v21l155 4v-66q74 72 152 72q85 0 133 -63t48 -164q0 -106 -56.5 -176.5t-150.5 -70.5q-63 0 -124 33v-159 q0 -22 19.5 -29.5t75.5 -8.5v-21h-252z"/>
<glyph glyph-name="q" horiz-adv-x="531" unicode="q" d="M265 38q57 0 109 45v271q-33 89 -110 89q-66 0 -99.5 -58.5t-33.5 -161.5q0 -81 36.5 -133t97.5 -52zM282 -192v20q52 2 72 9.5t20 26.5v191q-70 -62 -144 -62q-88 0 -140 63.5t-52 161.5q0 103 60 176t157 73q76 0 147 -50l42 53h17l-3 -88v-518q0 -19 15 -27t58 -9v-20 h-249z"/>
<glyph glyph-name="r" horiz-adv-x="400" unicode="r" d="M31 0v22q44 1 58.5 8t14.5 29v327q0 24 -16 36.5t-57 13.5v21l155 4v-90q62 94 133 94q36 0 54.5 -19.5t18.5 -47.5q0 -24 -14.5 -40t-37.5 -16t-39 14t-16 39q0 8 4 22q-57 -4 -101 -75v-283q0 -21 17.5 -28.5t66.5 -8.5v-22h-241z"/>
<glyph glyph-name="s" horiz-adv-x="411" unicode="s" d="M46 -8v158h21q42 -74 76 -103.5t81 -29.5q41 0 64 23.5t23 54.5q0 36 -26 57t-96 41q-76 22 -108 51t-32 79q0 64 44 104t117 40q55 0 99 -27l20 27h17v-140h-21q-36 63 -63.5 89.5t-66.5 26.5q-36 0 -59.5 -21.5t-23.5 -55.5q0 -31 27 -50.5t90 -37.5q74 -21 106.5 -51 t32.5 -83q0 -65 -40 -108.5t-115 -43.5q-27 0 -61.5 9.5t-56.5 23.5l-32 -33h-17z"/>
<glyph glyph-name="t" horiz-adv-x="347" unicode="t" d="M209 -10q-107 0 -107 127v303h-90v19l91 21v127l83 36v-166h144v-36h-144v-303q0 -43 14.5 -62.5t45.5 -19.5q41 0 81 61l17 -12q-52 -95 -135 -95z"/>
<glyph glyph-name="u" horiz-adv-x="551" unicode="u" d="M211 -8q-56 0 -88 36t-32 102v261q0 24 -15.5 34t-58.5 11v21l158 5v-299q0 -63 22 -90.5t72 -27.5q63 0 112 66v280q0 23 -16 33.5t-58 11.5v21l158 5v-405q0 -19 15.5 -27t57.5 -9v-21h-155v83q-78 -91 -172 -91z"/>
<glyph glyph-name="v" horiz-adv-x="479" unicode="v" d="M227 -7l-152 374q-16 38 -32.5 53t-51.5 19v20h227v-20q-63 -4 -63 -35q0 -11 5 -25l109 -279h4l92 231q16 42 16 61q0 39 -64 47v20h175v-20q-49 -6 -82 -85l-151 -361h-32z"/>
<glyph glyph-name="w" horiz-adv-x="721" unicode="w" d="M360 334l-13 33q-14 38 -29.5 53t-46.5 19v20h214v-20q-64 -4 -64 -39q0 -9 5 -22l97 -271h4l76 224q15 45 15 61q0 38 -62 47v20h180v-20q-33 -4 -54 -24t-35 -60l-132 -362h-30l-111 300l-124 -300h-30l-144 374q-15 38 -31.5 53t-51.5 19v20h221v-20q-62 -4 -62 -38 q0 -8 5 -23l103 -272h4z"/>
<glyph glyph-name="x" horiz-adv-x="500" unicode="x" d="M266 272l57 76q28 37 28 57q0 25 -44 34v20h187v-20q-38 -7 -64.5 -25t-60.5 -59l-86 -106l117 -159q29 -39 47.5 -52t48.5 -17v-21h-217v21q53 6 53 25q0 10 -17 36l-79 112l-63 -83q-29 -38 -29 -57q0 -24 52 -33v-21h-189v21q35 7 62 25.5t60 58.5l91 113l-114 153 q-28 38 -46.5 50.5t-51.5 17.5v20h215v-20q-48 -5 -48 -23q0 -13 19 -38z"/>
<glyph glyph-name="y" horiz-adv-x="489" unicode="y" d="M240 -1l-162 368q-17 39 -33.5 53.5t-50.5 18.5v20h228v-20q-64 -4 -64 -36q0 -11 6 -24l117 -281l94 233q16 42 16 61q0 21 -15.5 31.5t-50.5 15.5v20h178v-20q-51 -7 -83 -84l-162 -391q-38 -93 -75.5 -129t-82.5 -36q-34 0 -55 19.5t-21 46.5q0 25 14 41.5t39 16.5 q22 0 36.5 -15.5t14.5 -38.5q0 -24 -13 -38q29 2 56.5 35t62.5 120z"/>
<glyph glyph-name="z" horiz-adv-x="460" unicode="z" d="M37 0l-2 14l290 417h-103q-50 0 -78 -26t-67 -99l-21 2l12 151h360l2 -14l-289 -417h109q54 0 85 29.5t68 102.5l22 -2l-13 -158h-375z"/>
<glyph glyph-name="braceleft" horiz-adv-x="400" unicode="{" d="M407 -155q-109 2 -169.5 51t-60.5 139q0 27 8.5 73t8.5 61q0 103 -167 117v29q167 15 167 113q0 15 -8.5 59t-8.5 70q0 89 60 135.5t170 50.5v-20q-82 -6 -110.5 -43t-28.5 -111q0 -12 2 -49.5t2 -59.5q0 -74 -39 -107t-139 -47v-12q97 -12 137.5 -47t40.5 -110 q0 -22 -2 -61.5t-2 -51.5q0 -76 28.5 -114.5t110.5 -44.5v-20z"/>
<glyph glyph-name="bar" horiz-adv-x="298" unicode="|" d="M131 -209v934h36v-934h-36z"/>
<glyph glyph-name="braceright" horiz-adv-x="400" unicode="}" d="M-7 -155v20q82 6 110.5 44.5t28.5 114.5q0 12 -2 51.5t-2 61.5q0 75 40.5 110t138.5 47v12q-101 14 -140 47t-39 107q0 22 2 59.5t2 49.5q0 75 -28.5 111.5t-110.5 42.5v20q110 -4 170 -50.5t60 -135.5q0 -26 -8 -70t-8 -59q0 -98 166 -113v-29q-166 -14 -166 -117 q0 -15 8 -61.5t8 -72.5q0 -90 -60.5 -139t-169.5 -51z"/>
<glyph glyph-name="asciitilde" horiz-adv-x="382" unicode="~" d="M44 266q11 63 32 91.5t63 28.5q25 0 72 -25t63 -25q28 0 44 59h25q-11 -62 -33 -91t-62 -29q-26 0 -73 24.5t-62 24.5q-29 0 -44 -58h-25z"/>
<glyph glyph-name="uni00A0" horiz-adv-x="184" unicode=" "/>
<glyph glyph-name="exclamdown" horiz-adv-x="278" unicode="¡" d="M138 -16q-25 0 -40 18.5t-15 52.5q0 44 19 193.5t25 254.5h23q6 -106 24.5 -255.5t18.5 -192.5q0 -71 -55 -71zM138 587q-25 0 -42 17t-17 42q0 24 17 41.5t42 17.5t42.5 -17.5t17.5 -41.5q0 -25 -17.5 -42t-42.5 -17z"/>
<glyph glyph-name="cent" horiz-adv-x="519" unicode="¢" d="M160 247q0 -75 28.5 -128t81.5 -71v391q-48 -13 -79 -63.5t-31 -128.5zM270 -86v79q-92 5 -146.5 69.5t-54.5 162.5q0 94 57.5 161t143.5 79v70h33v-68q74 -1 123 -36.5t49 -80.5q0 -25 -13.5 -42.5t-36.5 -17.5q-25 0 -39.5 14.5t-14.5 37.5q0 34 31 54q-32 46 -99 47 v-403h16q78 0 142 75l16 -14q-68 -100 -174 -108v-79h-33z"/>
<glyph glyph-name="sterling" horiz-adv-x="585" unicode="£" d="M444 341v-29h-163q14 -44 14 -77q0 -70 -63 -126q10 -3 53 -15.5t75 -19t64 -6.5q44 0 70.5 26.5t32.5 92.5l23 -1v-6q0 -86 -40 -140.5t-104 -54.5q-76 0 -201 96q-12 -41 -37 -68.5t-56 -27.5q-27 0 -42 15t-15 38q0 33 32.5 56t90.5 23q7 0 25 -2q13 31 13 65 q0 58 -36 132h-114v29h100q-29 60 -29 108q0 95 61.5 148.5t154.5 53.5q71 0 118.5 -37t47.5 -86q0 -28 -15 -46.5t-40 -18.5q-28 0 -45.5 16.5t-17.5 46.5q0 32 31 55q-33 44 -90 44q-52 0 -83.5 -32.5t-31.5 -97.5q0 -17 2.5 -33t7.5 -33.5t9 -28t12.5 -31t11.5 -28.5h174 z"/>
<glyph glyph-name="yen" horiz-adv-x="668" unicode="¥" d="M92 292v30h167l-132 222q-19 32 -40.5 47t-64.5 25v21h285v-23q-83 -4 -83 -37q0 -14 13 -37l128 -228l103 179q29 49 29 74q0 19 -17.5 31.5t-56.5 20.5v20h222v-20q-38 -8 -68 -33.5t-62 -79.5l-108 -182h167v-30h-185l-10 -17v-61h195v-29h-195v-105q0 -29 23.5 -42 t87.5 -15v-23h-313v23q64 2 87.5 15t23.5 42v105h-196v29h196v60l-11 18h-185z"/>
<glyph glyph-name="brokenbar" horiz-adv-x="298" unicode="¦" d="M131 189h36v-398h-36v398zM167 327h-36v398h36v-398z"/>
<glyph glyph-name="section" horiz-adv-x="541" unicode="§" d="M319 158q89 23 89 79q0 33 -30 57.5t-105 51.5q-21 7 -33 13q-94 -24 -94 -87q0 -34 30 -54.5t120 -51.5q16 -5 23 -8zM81 237q0 47 32 82.5t90 52.5v3q-55 24 -81.5 52t-26.5 69q0 69 54.5 112t135.5 43q70 0 119.5 -33t49.5 -75q0 -27 -14.5 -43t-38.5 -16 q-25 0 -40 16t-15 37q0 37 35 50q-32 37 -103 37q-53 0 -87 -25.5t-34 -64.5q0 -33 34 -56.5t130 -58.5q78 -28 112 -58.5t34 -83.5q0 -44 -26 -79.5t-79 -53.5v-3q49 -19 73 -46.5t24 -73.5q0 -69 -48 -115.5t-141 -46.5q-79 0 -139 31.5t-60 84.5q0 29 15.5 48.5 t43.5 19.5q27 0 42 -16.5t15 -40.5q0 -37 -38 -57q14 -19 49.5 -31t78.5 -12q58 0 92 26.5t34 64.5q0 35 -31.5 60t-124.5 56q-88 30 -127 61t-39 83z"/>
<glyph glyph-name="dieresis" horiz-adv-x="322" unicode="¨" d="M72 539q-24 0 -39 16t-15 40t15 40.5t39 16.5q23 0 38.5 -16t15.5 -40q0 -25 -15.5 -41t-38.5 -16zM251 539q-24 0 -39 16t-15 40t15 40.5t39 16.5q23 0 38.5 -16t15.5 -40q0 -25 -15.5 -41t-38.5 -16z"/>
<glyph glyph-name="copyright" horiz-adv-x="811" unicode="©" d="M408 145q-82 0 -132 51.5t-50 140.5t56 146t135 57q54 0 94 -33l20 31h17v-132h-20q-23 58 -49.5 84t-65.5 26q-49 0 -81.5 -44t-32.5 -128q0 -80 36 -122.5t88 -42.5q80 0 119 88l21 -11q-49 -111 -155 -111zM405 -10q147 0 246 101.5t99 248.5q0 146 -99 246.5 t-246 100.5q-146 0 -245 -101t-99 -246q0 -147 99 -248.5t245 -101.5zM405 -33q-157 0 -264.5 107t-107.5 266q0 157 107.5 264t264.5 107q158 0 265.5 -107t107.5 -264q0 -159 -107.5 -266t-265.5 -107z"/>
<glyph glyph-name="ordfeminine" horiz-adv-x="423" unicode="ª" d="M188 361q36 0 69 43v103q-76 -17 -99.5 -35.5t-23.5 -55.5q0 -55 54 -55zM149 322q-44 0 -67.5 23t-23.5 56q0 53 48 80q33 18 91 31.5t60 14.5v37q0 48 -13.5 67t-48.5 19q-38 0 -55 -17q14 -19 14 -37q0 -19 -12 -31t-32 -12q-17 0 -28 12.5t-11 29.5q0 32 38 54.5 t95 22.5q123 0 123 -105v-172q0 -21 6 -31t23 -10q13 0 28 4l4 -16q-43 -19 -70 -19q-30 0 -41 12.5t-14 44.5h-5q-53 -58 -109 -58z"/>
<glyph glyph-name="guillemotleft" horiz-adv-x="500" unicode="«" d="M234 30l-174 165q-19 19 -19 29t19 29l174 166l17 -13l-128 -182l128 -183zM434 30l-174 165q-19 19 -19 29t19 29l174 166l17 -13l-128 -182l128 -183z"/>
<glyph glyph-name="registered" horiz-adv-x="451" unicode="®" d="M204 523v-65q0 -14 30 -14v-13h-95v13q31 0 31 14v144q0 13 -31 13v13h87q42 0 61.5 -14t19.5 -34t-12 -30.5t-43 -17.5v-4q26 -2 36.5 -10.5t12.5 -27.5l4 -27q1 -20 30 -20v-13q-3 -1 -23 -1q-28 0 -36.5 8t-8.5 29l-1 22q0 19 -10 27t-37 8h-15zM204 536h21 q45 0 45 41q0 37 -46 37h-20v-78zM225 357q73 0 119 47.5t46 121.5q0 73 -45.5 120t-119.5 47q-73 0 -118.5 -47t-45.5 -120t45.5 -121t118.5 -48zM225 340q-79 0 -132 53t-53 133t53 132.5t132 52.5q80 0 133 -52.5t53 -132.5t-53 -133t-133 -53z"/>
<glyph glyph-name="macron" horiz-adv-x="321" unicode="¯" d="M22 560v48h278v-48h-278z"/>
<glyph glyph-name="degree" horiz-adv-x="389" unicode="°" d="M197 421q39 0 62 31t23 92q0 59 -24.5 90.5t-65.5 31.5q-39 0 -61.5 -31t-22.5 -90q0 -61 24.5 -92.5t64.5 -31.5zM196 393q-68 0 -109.5 43t-41.5 107q0 63 43 107t107 44q66 0 107.5 -42.5t41.5 -106.5q0 -63 -42.5 -107.5t-105.5 -44.5z"/>
<glyph glyph-name="plusminus" horiz-adv-x="508" unicode="±" d="M57 49v34h394v-34h-394zM57 348v34h179v178h38v-178h177v-34h-177v-181h-38v181h-179z"/>
<glyph glyph-name="acute" horiz-adv-x="238" unicode="´" d="M50 533l54 125q16 39 29 55t31 16q17 0 28 -11.5t11 -28.5q0 -26 -41 -67l-89 -89h-23z"/>
<glyph glyph-name="paragraph" horiz-adv-x="657" unicode="¶" d="M345 -102v280q-129 3 -210.5 64t-81.5 166q0 103 78 166t219 63h268v-19q-68 -6 -88 -21t-20 -55v-644h-37v711h-90v-711h-38z"/>
<glyph glyph-name="periodcentered" horiz-adv-x="224" unicode="·" d="M113 264q-25 0 -42.5 17.5t-17.5 41.5q0 25 17.5 42t42.5 17q24 0 41.5 -17t17.5 -42q0 -24 -17.5 -41.5t-41.5 -17.5z"/>
<glyph glyph-name="cedilla" horiz-adv-x="282" unicode="¸" d="M112 -251q-59 0 -103 33l14 20q36 -26 76 -26q58 0 58 55q0 25 -20.5 39.5t-52.5 14.5q-18 0 -36 -5l-9 12l122 114h32l-85 -80l2 -3q55 -1 82.5 -25t27.5 -59q0 -39 -30.5 -64.5t-77.5 -25.5z"/>
<glyph glyph-name="ordmasculine" horiz-adv-x="433" unicode="º" d="M220 343q45 0 67 37t22 118q0 152 -95 152q-89 0 -89 -152q0 -155 95 -155zM218 322q-78 0 -125 47.5t-47 125.5q0 77 48.5 127t123.5 50q76 0 123 -48.5t47 -125.5t-48.5 -126.5t-121.5 -49.5z"/>
<glyph glyph-name="guillemotright" horiz-adv-x="500" unicode="»" d="M67 30l-18 12l128 182l-128 183l18 12l173 -166q20 -19 20 -29t-20 -29zM267 30l-18 12l128 182l-128 183l18 12l173 -166q20 -19 20 -29t-20 -29z"/>
<glyph glyph-name="questiondown" horiz-adv-x="467" unicode="¿" d="M243 -17q-100 0 -156 51t-56 125q0 149 225 206v138h34l1 -156q-94 -24 -128 -64.5t-34 -120.5q0 -152 124 -152q73 0 110 56q-46 18 -46 64q0 27 16.5 46t44.5 19q29 0 47.5 -20t18.5 -48q0 -62 -58 -103t-143 -41zM270 586q-24 0 -41.5 17.5t-17.5 41.5q0 25 17.5 42 t41.5 17q25 0 42.5 -17t17.5 -42q0 -24 -17.5 -41.5t-42.5 -17.5z"/>
<glyph glyph-name="Agrave" horiz-adv-x="661" unicode="À" d="M343 757l-89 89q-41 41 -41 67q0 17 11.5 28.5t27.5 11.5q18 0 31 -16t29 -55l54 -125h-23zM193 286h212l-98 283h-4zM469 102l-54 156h-233l-35 -91q-24 -64 -24 -89t18.5 -37.5t62.5 -19.5v-21h-225v21q49 12 76.5 44t58.5 108l208 521h34l212 -580q18 -49 39.5 -67.5 t76.5 -25.5v-21h-300v21q51 3 72 13t21 32q0 14 -8 36z"/>
<glyph glyph-name="Aacute" horiz-adv-x="661" unicode="Á" d="M307 757l54 125q16 39 29 55t31 16q17 0 28 -11.5t11 -28.5q0 -26 -41 -67l-89 -89h-23zM193 286h212l-98 283h-4zM469 102l-54 156h-233l-35 -91q-24 -64 -24 -89t18.5 -37.5t62.5 -19.5v-21h-225v21q49 12 76.5 44t58.5 108l208 521h34l212 -580q18 -49 39.5 -67.5 t76.5 -25.5v-21h-300v21q51 3 72 13t21 32q0 14 -8 36z"/>
<glyph glyph-name="Acircumflex" horiz-adv-x="661" unicode="Â" d="M202 757l125 183h21l117 -183h-23l-108 98l-108 -98h-24zM193 286h212l-98 283h-4zM469 102l-54 156h-233l-35 -91q-24 -64 -24 -89t18.5 -37.5t62.5 -19.5v-21h-225v21q49 12 76.5 44t58.5 108l208 521h34l212 -580q18 -49 39.5 -67.5t76.5 -25.5v-21h-300v21 q51 3 72 13t21 32q0 14 -8 36z"/>
<glyph glyph-name="Atilde" horiz-adv-x="661" unicode="Ã" d="M184 755q11 63 32 91.5t63 28.5q25 0 74.5 -24t65.5 -24q30 0 46 59h23q-11 -62 -33 -91t-62 -29q-26 0 -75.5 23.5t-64.5 23.5q-31 0 -46 -58h-23zM193 286h212l-98 283h-4zM469 102l-54 156h-233l-35 -91q-24 -64 -24 -89t18.5 -37.5t62.5 -19.5v-21h-225v21 q49 12 76.5 44t58.5 108l208 521h34l212 -580q18 -49 39.5 -67.5t76.5 -25.5v-21h-300v21q51 3 72 13t21 32q0 14 -8 36z"/>
<glyph glyph-name="Adieresis" horiz-adv-x="661" unicode="Ä" d="M248 763q-24 0 -39 16t-15 40t15 40.5t39 16.5q23 0 38.5 -16t15.5 -40q0 -25 -15.5 -41t-38.5 -16zM427 763q-24 0 -39 16t-15 40t15 40.5t39 16.5q23 0 38.5 -16t15.5 -40q0 -25 -15.5 -41t-38.5 -16zM193 286h212l-98 283h-4zM469 102l-54 156h-233l-35 -91 q-24 -64 -24 -89t18.5 -37.5t62.5 -19.5v-21h-225v21q49 12 76.5 44t58.5 108l208 521h34l212 -580q18 -49 39.5 -67.5t76.5 -25.5v-21h-300v21q51 3 72 13t21 32q0 14 -8 36z"/>
<glyph glyph-name="Aring" horiz-adv-x="661" unicode="Å" d="M338 699q28 0 43.5 21.5t15.5 58.5q0 81 -59 81t-59 -81q0 -37 15.5 -58.5t43.5 -21.5zM405 286l-98 283h-4l-110 -283h212zM182 258l-35 -91q-24 -64 -24 -89q0 -26 19 -38.5t62 -19.5v-20h-225v20q49 12 76.5 44.5t58.5 108.5l203 507q-37 7 -59.5 34.5t-22.5 64.5 q0 42 28.5 71.5t74.5 29.5q45 0 74 -29.5t29 -71.5q0 -37 -22 -64t-58 -34l207 -567q18 -49 39.5 -67.5t76.5 -25.5v-21h-300v23q51 2 72 11.5t21 31.5q0 14 -8 36l-54 156h-233z"/>
<glyph glyph-name="AE" horiz-adv-x="993" unicode="Æ" d="M471 298v331h-9l-209 -331h218zM235 270l-72 -116q-39 -59 -39 -87q0 -34 61 -46v-21h-224v21q50 12 90 48.5t83 103.5l260 405q13 20 13 35q0 33 -99 45v20h605l3 -200l-22 -1q-34 97 -72 134.5t-119 37.5h-137v-283h61q62 0 91.5 24t48.5 101h20v-278h-20 q-19 77 -48 100.5t-92 23.5h-61v-308h137q95 0 141.5 43t81.5 146l22 -1l-5 -217h-580v23q62 2 85 15t23 42v190h-236z"/>
<glyph glyph-name="Ccedilla" horiz-adv-x="688" unicode="Ç" d="M347 -251q-59 0 -103 33l14 20q36 -26 76 -26q58 0 58 55q0 25 -20.5 39.5t-52.5 14.5q-19 0 -36 -5l-9 12l97 91q-144 2 -234.5 97.5t-90.5 250.5t100.5 259t247.5 104q93 0 170 -42l35 44h21v-223h-21q-72 194 -216 194q-96 0 -162 -85t-66 -247q0 -78 22 -139 t58.5 -96.5t79 -53.5t87.5 -18q81 0 139 45.5t91 117.5l24 -13q-34 -77 -96.5 -131.5t-154.5 -62.5l-62 -58l2 -3q55 -1 82.5 -25t27.5 -59q0 -39 -30.5 -64.5t-77.5 -25.5z"/>
<glyph glyph-name="Egrave" horiz-adv-x="668" unicode="È" d="M368 757l-89 89q-41 41 -41 67q0 17 11.5 28.5t27.5 11.5q18 0 31 -16t29 -55l54 -125h-23zM38 0v23q63 2 86 15t23 42v518q0 29 -23 42.5t-86 15.5v22h550l3 -200l-22 -1q-34 97 -71.5 134.5t-118.5 37.5h-137v-283h61q62 0 91.5 24t48.5 101h20v-278h-20 q-19 77 -48 100.5t-92 23.5h-61v-308h137q95 0 141.5 43t81.5 146l22 -1l-5 -217h-581z"/>
<glyph glyph-name="Eacute" horiz-adv-x="668" unicode="É" d="M38 0v23q63 2 86 15t23 42v518q0 29 -23 42.5t-86 15.5v22h550l3 -200l-22 -1q-34 97 -71.5 134.5t-118.5 37.5h-137v-283h61q62 0 91.5 24t48.5 101h20v-278h-20q-19 77 -48 100.5t-92 23.5h-61v-308h137q95 0 141.5 43t81.5 146l22 -1l-5 -217h-581zM317 757l54 125 q16 39 29 55t31 16q17 0 28 -11.5t11 -28.5q0 -26 -41 -67l-89 -89h-23z"/>
<glyph glyph-name="Ecircumflex" horiz-adv-x="668" unicode="Ê" d="M38 0v23q63 2 86 15t23 42v518q0 29 -23 42.5t-86 15.5v22h550l3 -200l-22 -1q-34 97 -71.5 134.5t-118.5 37.5h-137v-283h61q62 0 91.5 24t48.5 101h20v-278h-20q-19 77 -48 100.5t-92 23.5h-61v-308h137q95 0 141.5 43t81.5 146l22 -1l-5 -217h-581zM201 757l125 183 h21l117 -183h-23l-108 98l-108 -98h-24z"/>
<glyph glyph-name="Edieresis" horiz-adv-x="668" unicode="Ë" d="M38 0v23q63 2 86 15t23 42v518q0 29 -23 42.5t-86 15.5v22h550l3 -200l-22 -1q-34 97 -71.5 134.5t-118.5 37.5h-137v-283h61q62 0 91.5 24t48.5 101h20v-278h-20q-19 77 -48 100.5t-92 23.5h-61v-308h137q95 0 141.5 43t81.5 146l22 -1l-5 -217h-581zM256 763 q-24 0 -39 16t-15 40t15 40.5t39 16.5q23 0 38.5 -16t15.5 -40q0 -25 -15.5 -41t-38.5 -16zM435 763q-24 0 -39 16t-15 40t15 40.5t39 16.5q23 0 38.5 -16t15.5 -40q0 -25 -15.5 -41t-38.5 -16z"/>
<glyph glyph-name="Igrave" horiz-adv-x="407" unicode="Ì" d="M230 757l-89 89q-41 41 -41 67q0 17 11.5 28.5t27.5 11.5q18 0 31 -16t29 -55l54 -125h-23zM46 0v23q65 2 87.5 15t22.5 42v518q0 29 -22.5 42.5t-87.5 15.5v22h315v-22q-65 -2 -87.5 -15.5t-22.5 -42.5v-518q0 -29 22.5 -42t87.5 -15v-23h-315z"/>
<glyph glyph-name="Iacute" horiz-adv-x="407" unicode="Í" d="M174 757l54 125q16 39 29 55t31 16q17 0 28 -11.5t11 -28.5q0 -26 -41 -67l-89 -89h-23zM46 0v23q65 2 87.5 15t22.5 42v518q0 29 -22.5 42.5t-87.5 15.5v22h315v-22q-65 -2 -87.5 -15.5t-22.5 -42.5v-518q0 -29 22.5 -42t87.5 -15v-23h-315z"/>
<glyph glyph-name="Icircumflex" horiz-adv-x="407" unicode="Î" d="M72 757l125 183h21l117 -183h-23l-108 98l-108 -98h-24zM46 0v23q65 2 87.5 15t22.5 42v518q0 29 -22.5 42.5t-87.5 15.5v22h315v-22q-65 -2 -87.5 -15.5t-22.5 -42.5v-518q0 -29 22.5 -42t87.5 -15v-23h-315z"/>
<glyph glyph-name="Idieresis" horiz-adv-x="407" unicode="Ï" d="M117 763q-24 0 -39 16t-15 40t15 40.5t39 16.5q23 0 38.5 -16t15.5 -40q0 -25 -15.5 -41t-38.5 -16zM296 763q-24 0 -39 16t-15 40t15 40.5t39 16.5q23 0 38.5 -16t15.5 -40q0 -25 -15.5 -41t-38.5 -16zM46 0v23q65 2 87.5 15t22.5 42v518q0 29 -22.5 42.5t-87.5 15.5v22 h315v-22q-65 -2 -87.5 -15.5t-22.5 -42.5v-518q0 -29 22.5 -42t87.5 -15v-23h-315z"/>
<glyph glyph-name="Eth" horiz-adv-x="742" unicode="Ð" d="M242 28h74q155 0 213 72.5t58 244.5q0 165 -66 235t-206 70h-73v-280h131v-34h-131v-308zM38 0v23q63 2 86 15t23 42v256h-101v34h101v228q0 29 -23 42.5t-86 15.5v22h288q178 0 274 -90t96 -237q0 -70 -21.5 -132t-64 -111.5t-113.5 -78.5t-162 -29h-297z"/>
<glyph glyph-name="Ntilde" horiz-adv-x="768" unicode="Ñ" d="M260 755q11 63 32 91.5t63 28.5q25 0 74.5 -24t65.5 -24q30 0 46 59h23q-11 -62 -33 -91t-62 -29q-26 0 -75.5 23.5t-64.5 23.5q-31 0 -46 -58h-23zM621 -17l-437 592h-1v-413q0 -74 22 -102t94 -39v-21h-261v21q68 12 90.5 40.5t22.5 100.5v403q0 88 -113 91v22h191 l389 -530h1v369q0 71 -25.5 100.5t-97.5 39.5v21h261v-21q-66 -12 -86 -39.5t-20 -100.5v-534h-30z"/>
<glyph glyph-name="Ograve" horiz-adv-x="739" unicode="Ò" d="M385 757l-89 89q-41 41 -41 67q0 17 11.5 28.5t27.5 11.5q18 0 31 -16t29 -55l54 -125h-23zM374 11q210 0 210 328q0 172 -59 250t-160 78q-209 0 -209 -328t218 -328zM370 -17q-136 0 -230 98t-94 256q0 157 95.5 257t228.5 100q136 0 229.5 -98t93.5 -255t-95.5 -257.5 t-227.5 -100.5z"/>
<glyph glyph-name="Oacute" horiz-adv-x="739" unicode="Ó" d="M374 11q210 0 210 328q0 172 -59 250t-160 78q-209 0 -209 -328t218 -328zM370 -17q-136 0 -230 98t-94 256q0 157 95.5 257t228.5 100q136 0 229.5 -98t93.5 -255t-95.5 -257.5t-227.5 -100.5zM337 757l54 125q16 39 29 55t31 16q17 0 28 -11.5t11 -28.5q0 -26 -41 -67 l-89 -89h-23z"/>
<glyph glyph-name="Ocircumflex" horiz-adv-x="739" unicode="Ô" d="M374 11q210 0 210 328q0 172 -59 250t-160 78q-209 0 -209 -328t218 -328zM370 -17q-136 0 -230 98t-94 256q0 157 95.5 257t228.5 100q136 0 229.5 -98t93.5 -255t-95.5 -257.5t-227.5 -100.5zM238 757l125 183h21l117 -183h-23l-108 98l-108 -98h-24z"/>
<glyph glyph-name="Otilde" horiz-adv-x="739" unicode="Õ" d="M236 755q11 63 32 91.5t63 28.5q25 0 74.5 -24t65.5 -24q30 0 46 59h23q-11 -62 -33 -91t-62 -29q-26 0 -75.5 23.5t-64.5 23.5q-31 0 -46 -58h-23zM374 11q210 0 210 328q0 172 -59 250t-160 78q-209 0 -209 -328t218 -328zM370 -17q-136 0 -230 98t-94 256 q0 157 95.5 257t228.5 100q136 0 229.5 -98t93.5 -255t-95.5 -257.5t-227.5 -100.5z"/>
<glyph glyph-name="Odieresis" horiz-adv-x="739" unicode="Ö" d="M374 11q210 0 210 328q0 172 -59 250t-160 78q-209 0 -209 -328t218 -328zM370 -17q-136 0 -230 98t-94 256q0 157 95.5 257t228.5 100q136 0 229.5 -98t93.5 -255t-95.5 -257.5t-227.5 -100.5zM280 763q-24 0 -39 16t-15 40t15 40.5t39 16.5q23 0 38.5 -16t15.5 -40 q0 -25 -15.5 -41t-38.5 -16zM459 763q-24 0 -39 16t-15 40t15 40.5t39 16.5q23 0 38.5 -16t15.5 -40q0 -25 -15.5 -41t-38.5 -16z"/>
<glyph glyph-name="multiply" horiz-adv-x="541" unicode="×" d="M436 506l25 -25l-166 -166l166 -165l-25 -25l-166 165l-165 -165l-25 25l165 165l-165 166l25 25l165 -166z"/>
<glyph glyph-name="Oslash" horiz-adv-x="739" unicode="Ø" d="M374 11q210 0 210 328q0 124 -33 201l-347 -436q55 -93 170 -93zM365 667q-209 0 -209 -328q0 -127 32 -203l347 437q-56 94 -170 94zM370 -17q-117 0 -204 73l-73 -91h-41l90 113q-96 101 -96 259q0 157 95.5 257t228.5 100q117 0 203 -74l73 93h42l-91 -115 q96 -99 96 -257q0 -157 -95.5 -257.5t-227.5 -100.5z"/>
<glyph glyph-name="Ugrave" horiz-adv-x="755" unicode="Ù" d="M413 757l-89 89q-41 41 -41 67q0 17 11.5 28.5t27.5 11.5q18 0 31 -16t29 -55l54 -125h-23zM386 -17q-119 0 -187.5 54.5t-68.5 147.5v413q0 29 -23 42.5t-85 15.5v22h304v-22q-65 -2 -83 -14t-18 -44v-392q0 -96 55 -140t145 -44q78 0 128 48q53 55 53 151v296 q0 71 -25.5 100.5t-98.5 39.5v21h262v-21q-67 -12 -86.5 -39.5t-19.5 -100.5v-317q0 -94 -66 -155.5t-186 -61.5z"/>
<glyph glyph-name="Uacute" horiz-adv-x="755" unicode="Ú" d="M386 -17q-119 0 -187.5 54.5t-68.5 147.5v413q0 29 -23 42.5t-85 15.5v22h304v-22q-65 -2 -83 -14t-18 -44v-392q0 -96 55 -140t145 -44q78 0 128 48q53 55 53 151v296q0 71 -25.5 100.5t-98.5 39.5v21h262v-21q-67 -12 -86.5 -39.5t-19.5 -100.5v-317q0 -94 -66 -155.5 t-186 -61.5zM376 757l54 125q16 39 29 55t31 16q17 0 28 -11.5t11 -28.5q0 -26 -41 -67l-89 -89h-23z"/>
<glyph glyph-name="Ucircumflex" horiz-adv-x="755" unicode="Û" d="M386 -17q-119 0 -187.5 54.5t-68.5 147.5v413q0 29 -23 42.5t-85 15.5v22h304v-22q-65 -2 -83 -14t-18 -44v-392q0 -96 55 -140t145 -44q78 0 128 48q53 55 53 151v296q0 71 -25.5 100.5t-98.5 39.5v21h262v-21q-67 -12 -86.5 -39.5t-19.5 -100.5v-317q0 -94 -66 -155.5 t-186 -61.5zM281 757l125 183h21l117 -183h-23l-108 98l-108 -98h-24z"/>
<glyph glyph-name="Udieresis" horiz-adv-x="755" unicode="Ü" d="M386 -17q-119 0 -187.5 54.5t-68.5 147.5v413q0 29 -23 42.5t-85 15.5v22h304v-22q-65 -2 -83 -14t-18 -44v-392q0 -96 55 -140t145 -44q78 0 128 48q53 55 53 151v296q0 71 -25.5 100.5t-98.5 39.5v21h262v-21q-67 -12 -86.5 -39.5t-19.5 -100.5v-317q0 -94 -66 -155.5 t-186 -61.5zM311 763q-24 0 -39 16t-15 40t15 40.5t39 16.5q23 0 38.5 -16t15.5 -40q0 -25 -15.5 -41t-38.5 -16zM490 763q-24 0 -39 16t-15 40t15 40.5t39 16.5q23 0 38.5 -16t15.5 -40q0 -25 -15.5 -41t-38.5 -16z"/>
<glyph glyph-name="Yacute" horiz-adv-x="655" unicode="Ý" d="M336 757l54 125q16 39 29 55t31 16q17 0 28 -11.5t11 -28.5q0 -26 -41 -67l-89 -89h-23zM361 331l122 210q31 54 31 73q0 18 -18 27.5t-60 15.5v21h229v-21q-49 -9 -76.5 -30.5t-64.5 -83.5l-146 -244v-219q0 -29 23 -42t87 -15v-23h-314v23q64 2 87 15t23 42v204 l-174 301q-20 35 -41 49.5t-65 22.5v21h292v-21q-88 -4 -88 -39q0 -16 12 -37z"/>
<glyph glyph-name="Thorn" horiz-adv-x="625" unicode="Þ" d="M242 188h72q97 0 132.5 40.5t35.5 123.5q0 73 -36.5 114t-128.5 41h-75v-319zM38 0v23q63 2 86 15t23 42v519q0 29 -23 42t-86 15v22h319v-23q-67 -2 -91 -14.5t-24 -42.5v-63h74q271 0 271 -181q0 -81 -66.5 -137.5t-211.5 -56.5h-67v-80q0 -30 24 -42.5t91 -14.5v-23 h-319z"/>
<glyph glyph-name="germandbls" horiz-adv-x="560" unicode="ß" d="M393 -10q-58 0 -99 26.5t-41 68.5q0 23 13.5 38t36.5 15q21 0 33.5 -14t12.5 -34q0 -27 -30 -45q27 -30 78 -30q38 0 58.5 22.5t20.5 59.5q0 32 -22.5 57t-70.5 53q-57 33 -80.5 60t-23.5 70q0 42 56 98q34 34 46.5 61.5t12.5 70.5q0 58 -27 90t-73 32q-52 0 -78.5 -36 t-26.5 -123v-530h-157v22q44 1 58.5 8t14.5 29v361h-85v19l85 21v31q0 105 58.5 163.5t142.5 58.5q78 0 125.5 -38.5t47.5 -98.5q0 -37 -24 -67.5t-77 -72.5q-41 -31 -41 -61q0 -27 20.5 -45.5t74.5 -52.5q54 -32 81.5 -62.5t27.5 -76.5q0 -59 -40.5 -103.5t-107.5 -44.5z "/>
<glyph glyph-name="agrave" d="M243 533l-89 89q-41 41 -41 67q0 17 11.5 28.5t27.5 11.5q18 0 31 -16t29 -55l54 -125h-23zM215 40q55 0 100 63v140q-108 -24 -142.5 -48.5t-34.5 -74.5q0 -36 19 -58t58 -22zM167 -6q-59 0 -90.5 30.5t-31.5 74.5q0 69 60 102q33 18 82.5 32.5t86 23t41.5 12.5v46 q0 67 -21 96t-69 29q-51 0 -78 -30q19 -28 19 -49q0 -23 -14 -38.5t-39 -15.5q-23 0 -36.5 15.5t-13.5 38.5q0 43 50.5 73t122.5 30q163 0 163 -140v-235q0 -30 9 -44t32 -14q14 0 36 6l4 -17q-52 -24 -91 -24q-38 0 -52.5 17.5t-17.5 59.5h-4q-70 -79 -148 -79z" unicode="à"/>
<glyph glyph-name="aacute" d="M208 533l54 125q16 39 29 55t31 16q17 0 28 -11.5t11 -28.5q0 -26 -41 -67l-89 -89h-23zM215 40q55 0 100 63v140q-108 -24 -142.5 -48.5t-34.5 -74.5q0 -36 19 -58t58 -22zM167 -6q-59 0 -90.5 30.5t-31.5 74.5q0 69 60 102q33 18 82.5 32.5t86 23t41.5 12.5v46 q0 67 -21 96t-69 29q-51 0 -78 -30q19 -28 19 -49q0 -23 -14 -38.5t-39 -15.5q-23 0 -36.5 15.5t-13.5 38.5q0 43 50.5 73t122.5 30q163 0 163 -140v-235q0 -30 9 -44t32 -14q14 0 36 6l4 -17q-52 -24 -91 -24q-38 0 -52.5 17.5t-17.5 59.5h-4q-70 -79 -148 -79z" unicode="á"/>
<glyph glyph-name="acircumflex" d="M109 533l125 183h21l117 -183h-23l-108 98l-108 -98h-24zM215 40q55 0 100 63v140q-108 -24 -142.5 -48.5t-34.5 -74.5q0 -36 19 -58t58 -22zM167 -6q-59 0 -90.5 30.5t-31.5 74.5q0 69 60 102q33 18 82.5 32.5t86 23t41.5 12.5v46q0 67 -21 96t-69 29q-51 0 -78 -30 q19 -28 19 -49q0 -23 -14 -38.5t-39 -15.5q-23 0 -36.5 15.5t-13.5 38.5q0 43 50.5 73t122.5 30q163 0 163 -140v-235q0 -30 9 -44t32 -14q14 0 36 6l4 -17q-52 -24 -91 -24q-38 0 -52.5 17.5t-17.5 59.5h-4q-70 -79 -148 -79z" unicode="â"/>
<glyph glyph-name="atilde" d="M93 531q11 63 32 91.5t63 28.5q25 0 74.5 -24t65.5 -24q30 0 46 59h23q-11 -62 -33 -91t-62 -29q-26 0 -75.5 23.5t-64.5 23.5q-31 0 -46 -58h-23zM215 40q55 0 100 63v140q-108 -24 -142.5 -48.5t-34.5 -74.5q0 -36 19 -58t58 -22zM167 -6q-59 0 -90.5 30.5t-31.5 74.5 q0 69 60 102q33 18 82.5 32.5t86 23t41.5 12.5v46q0 67 -21 96t-69 29q-51 0 -78 -30q19 -28 19 -49q0 -23 -14 -38.5t-39 -15.5q-23 0 -36.5 15.5t-13.5 38.5q0 43 50.5 73t122.5 30q163 0 163 -140v-235q0 -30 9 -44t32 -14q14 0 36 6l4 -17q-52 -24 -91 -24 q-38 0 -52.5 17.5t-17.5 59.5h-4q-70 -79 -148 -79z" unicode="ã"/>
<glyph glyph-name="adieresis" d="M153 539q-24 0 -39 16t-15 40t15 40.5t39 16.5q23 0 38.5 -16t15.5 -40q0 -25 -15.5 -41t-38.5 -16zM332 539q-24 0 -39 16t-15 40t15 40.5t39 16.5q23 0 38.5 -16t15.5 -40q0 -25 -15.5 -41t-38.5 -16zM215 40q55 0 100 63v140q-108 -24 -142.5 -48.5t-34.5 -74.5 q0 -36 19 -58t58 -22zM167 -6q-59 0 -90.5 30.5t-31.5 74.5q0 69 60 102q33 18 82.5 32.5t86 23t41.5 12.5v46q0 67 -21 96t-69 29q-51 0 -78 -30q19 -28 19 -49q0 -23 -14 -38.5t-39 -15.5q-23 0 -36.5 15.5t-13.5 38.5q0 43 50.5 73t122.5 30q163 0 163 -140v-235 q0 -30 9 -44t32 -14q14 0 36 6l4 -17q-52 -24 -91 -24q-38 0 -52.5 17.5t-17.5 59.5h-4q-70 -79 -148 -79z" unicode="ä"/>
<glyph glyph-name="aring" d="M243 561q27 0 43 22.5t16 57.5q0 80 -59 80t-59 -80q0 -35 16 -57.5t43 -22.5zM243 539q-47 0 -75.5 29.5t-28.5 72.5t28.5 72.5t75.5 29.5t75.5 -29.5t28.5 -72.5t-28 -72.5t-76 -29.5zM215 40q55 0 100 63v140q-108 -24 -142.5 -48.5t-34.5 -74.5q0 -36 19 -58t58 -22z M167 -6q-59 0 -90.5 30.5t-31.5 74.5q0 69 60 102q33 18 82.5 32.5t86 23t41.5 12.5v46q0 67 -21 96t-69 29q-51 0 -78 -30q19 -28 19 -49q0 -23 -14 -38.5t-39 -15.5q-23 0 -36.5 15.5t-13.5 38.5q0 43 50.5 73t122.5 30q163 0 163 -140v-235q0 -30 9 -44t32 -14q14 0 36 6 l4 -17q-52 -24 -91 -24q-38 0 -52.5 17.5t-17.5 59.5h-4q-70 -79 -148 -79z" unicode="å"/>
<glyph glyph-name="ae" horiz-adv-x="755" unicode="æ" d="M215 40q29 0 60.5 20t47.5 48v135q-109 -24 -147 -49t-38 -74q0 -36 19 -58t58 -22zM524 443q-49 0 -78.5 -41.5t-34.5 -125.5l213 3q1 10 1 30q0 62 -25.5 98t-75.5 36zM531 467q89 0 137.5 -56.5t48.5 -138.5q0 -3 -0.5 -9.5t-0.5 -9.5h-306v-17v-1q0 -87 40 -142 t114 -55q42 0 75 22t67 64l15 -13q-33 -55 -77 -87t-113 -32q-131 0 -178 107h-8q-30 -44 -78 -74.5t-100 -30.5q-59 0 -90.5 30.5t-31.5 74.5q0 69 60 102q33 18 84 32.5t89.5 23t44.5 12.5v46q0 125 -98 125q-51 0 -78 -30q19 -28 19 -49q0 -23 -14 -38.5t-39 -15.5 q-23 0 -36.5 15.5t-13.5 38.5q0 43 50.5 73t122.5 30q111 0 145 -67q60 70 150 70z"/>
<glyph glyph-name="ccedilla" horiz-adv-x="453" unicode="ç" d="M234 -251q-59 0 -103 33l14 20q36 -26 76 -26q58 0 58 55q0 25 -20.5 39.5t-52.5 14.5q-18 0 -36 -5l-9 12l108 101q-3 0 -11 -0.5t-11 -0.5q-94 0 -151.5 65.5t-57.5 165.5q0 105 65.5 174.5t162.5 69.5q73 0 116 -33t43 -73q0 -25 -13.5 -41t-36.5 -16 q-25 0 -39.5 14.5t-14.5 37.5q0 37 30 54q-31 33 -83 33q-61 0 -100 -52t-39 -146q0 -92 41.5 -148.5t116.5 -56.5q71 0 134 73l15 -13q-57 -82 -128 -100l-78 -74l2 -3q55 -1 82.5 -25t27.5 -59q0 -39 -30.5 -64.5t-77.5 -25.5z"/>
<glyph glyph-name="egrave" d="M254 533l-89 89q-41 41 -41 67q0 17 11.5 28.5t27.5 11.5q18 0 31 -16t29 -55l54 -125h-23zM247 443q-104 0 -116 -167l216 3q1 10 1 30q0 62 -25.5 98t-75.5 36zM254 -8q-99 0 -157.5 66t-58.5 167q0 103 62 172.5t154 69.5q89 0 137.5 -56.5t48.5 -138.5 q0 -3 -0.5 -9.5t-0.5 -9.5h-309v-17v-1q0 -87 41 -142t116 -55q42 0 75 22t67 64l15 -13q-33 -55 -77 -87t-113 -32z" unicode="è"/>
<glyph glyph-name="eacute" d="M221 533l54 125q16 39 29 55t31 16q17 0 28 -11.5t11 -28.5q0 -26 -41 -67l-89 -89h-23zM247 443q-104 0 -116 -167l216 3q1 10 1 30q0 62 -25.5 98t-75.5 36zM254 -8q-99 0 -157.5 66t-58.5 167q0 103 62 172.5t154 69.5q89 0 137.5 -56.5t48.5 -138.5q0 -3 -0.5 -9.5 t-0.5 -9.5h-309v-17v-1q0 -87 41 -142t116 -55q42 0 75 22t67 64l15 -13q-33 -55 -77 -87t-113 -32z" unicode="é"/>
<glyph glyph-name="ecircumflex" d="M118 533l125 183h21l117 -183h-23l-108 98l-108 -98h-24zM247 443q-104 0 -116 -167l216 3q1 10 1 30q0 62 -25.5 98t-75.5 36zM254 -8q-99 0 -157.5 66t-58.5 167q0 103 62 172.5t154 69.5q89 0 137.5 -56.5t48.5 -138.5q0 -3 -0.5 -9.5t-0.5 -9.5h-309v-17v-1 q0 -87 41 -142t116 -55q42 0 75 22t67 64l15 -13q-33 -55 -77 -87t-113 -32z" unicode="ê"/>
<glyph glyph-name="edieresis" d="M340 539q-24 0 -39 16t-15 40t15 40.5t39 16.5q23 0 38.5 -16t15.5 -40q0 -25 -15.5 -41t-38.5 -16zM161 539q-24 0 -39 16t-15 40t15 40.5t39 16.5q23 0 38.5 -16t15.5 -40q0 -25 -15.5 -41t-38.5 -16zM247 443q-104 0 -116 -167l216 3q1 10 1 30q0 62 -25.5 98 t-75.5 36zM254 -8q-99 0 -157.5 66t-58.5 167q0 103 62 172.5t154 69.5q89 0 137.5 -56.5t48.5 -138.5q0 -3 -0.5 -9.5t-0.5 -9.5h-309v-17v-1q0 -87 41 -142t116 -55q42 0 75 22t67 64l15 -13q-33 -55 -77 -87t-113 -32z" unicode="ë"/>
<glyph glyph-name="igrave" horiz-adv-x="286" unicode="ì" d="M143 533l-89 89q-41 41 -41 67q0 17 11.5 28.5t27.5 11.5q18 0 31 -16t29 -55l54 -125h-23zM35 0v22q44 1 58 8t14 29v327q0 24 -15.5 36.5t-56.5 13.5v21l156 4v-402q0 -22 13.5 -29t56.5 -8v-22h-226z"/>
<glyph glyph-name="iacute" horiz-adv-x="286" unicode="í" d="M35 0v22q44 1 58 8t14 29v327q0 24 -15.5 36.5t-56.5 13.5v21l156 4v-402q0 -22 13.5 -29t56.5 -8v-22h-226zM102 533l54 125q16 39 29 55t31 16q17 0 28 -11.5t11 -28.5q0 -26 -41 -67l-89 -89h-23z"/>
<glyph glyph-name="icircumflex" horiz-adv-x="286" unicode="î" d="M35 0v22q44 1 58 8t14 29v327q0 24 -15.5 36.5t-56.5 13.5v21l156 4v-402q0 -22 13.5 -29t56.5 -8v-22h-226zM2 533l125 183h21l117 -183h-23l-108 98l-108 -98h-24z"/>
<glyph glyph-name="idieresis" horiz-adv-x="286" unicode="ï" d="M35 0v22q44 1 58 8t14 29v327q0 24 -15.5 36.5t-56.5 13.5v21l156 4v-402q0 -22 13.5 -29t56.5 -8v-22h-226zM48 539q-24 0 -39 16t-15 40t15 40.5t39 16.5q23 0 38.5 -16t15.5 -40q0 -25 -15.5 -41t-38.5 -16zM227 539q-24 0 -39 16t-15 40t15 40.5t39 16.5 q23 0 38.5 -16t15.5 -40q0 -25 -15.5 -41t-38.5 -16z"/>
<glyph glyph-name="eth" horiz-adv-x="525" unicode="ð" d="M271 17q54 0 86 59t32 171q0 90 -31 143t-88 53t-95.5 -55t-38.5 -161q0 -92 36 -151t99 -59zM434 652l-90 -43q140 -117 140 -298q0 -149 -61 -234t-169 -85q-87 0 -150 67t-63 163q0 102 65.5 173.5t150.5 71.5q79 0 121 -58l5 3q-17 98 -87 174l-116 -56l-12 27 l106 51q-53 48 -126 81l9 20q91 -30 162 -80l103 49z"/>
<glyph glyph-name="ntilde" horiz-adv-x="566" unicode="ñ" d="M131 531q11 63 32 91.5t63 28.5q25 0 74.5 -24t65.5 -24q30 0 46 59h23q-11 -62 -33 -91t-62 -29q-26 0 -75.5 23.5t-64.5 23.5q-31 0 -46 -58h-23zM31 0v22q44 1 58.5 8t14.5 29v327q0 24 -16 36.5t-57 13.5v21l155 4v-91q81 94 177 94q54 0 85.5 -35.5t31.5 -101.5 v-268q0 -22 14.5 -29t58.5 -8v-22h-221v22q38 1 51 8t13 29v237q0 62 -22 89t-70 27q-67 0 -116 -70v-283q0 -22 12.5 -29t50.5 -8v-22h-220z"/>
<glyph glyph-name="ograve" horiz-adv-x="526" unicode="ò" d="M265 533l-89 89q-41 41 -41 67q0 17 11.5 28.5t27.5 11.5q18 0 31 -16t29 -55l54 -125h-23zM268 17q126 0 126 213t-135 213q-126 0 -126 -213q0 -109 36 -161t99 -52zM264 -8q-100 0 -163 65.5t-63 170.5q0 103 65 171t161 68q99 0 161.5 -65.5t62.5 -169.5t-64.5 -172 t-159.5 -68z"/>
<glyph glyph-name="oacute" horiz-adv-x="526" unicode="ó" d="M268 17q126 0 126 213t-135 213q-126 0 -126 -213q0 -109 36 -161t99 -52zM264 -8q-100 0 -163 65.5t-63 170.5q0 103 65 171t161 68q99 0 161.5 -65.5t62.5 -169.5t-64.5 -172t-159.5 -68zM235 533l54 125q16 39 29 55t31 16q17 0 28 -11.5t11 -28.5q0 -26 -41 -67 l-89 -89h-23z"/>
<glyph glyph-name="ocircumflex" horiz-adv-x="526" unicode="ô" d="M268 17q126 0 126 213t-135 213q-126 0 -126 -213q0 -109 36 -161t99 -52zM264 -8q-100 0 -163 65.5t-63 170.5q0 103 65 171t161 68q99 0 161.5 -65.5t62.5 -169.5t-64.5 -172t-159.5 -68zM134 533l125 183h21l117 -183h-23l-108 98l-108 -98h-24z"/>
<glyph glyph-name="otilde" horiz-adv-x="526" unicode="õ" d="M111 531q11 63 32 91.5t63 28.5q25 0 74.5 -24t65.5 -24q30 0 46 59h23q-11 -62 -33 -91t-62 -29q-26 0 -75.5 23.5t-64.5 23.5q-31 0 -46 -58h-23zM268 17q126 0 126 213t-135 213q-126 0 -126 -213q0 -109 36 -161t99 -52zM264 -8q-100 0 -163 65.5t-63 170.5 q0 103 65 171t161 68q99 0 161.5 -65.5t62.5 -169.5t-64.5 -172t-159.5 -68z"/>
<glyph glyph-name="odieresis" horiz-adv-x="526" unicode="ö" d="M268 17q126 0 126 213t-135 213q-126 0 -126 -213q0 -109 36 -161t99 -52zM264 -8q-100 0 -163 65.5t-63 170.5q0 103 65 171t161 68q99 0 161.5 -65.5t62.5 -169.5t-64.5 -172t-159.5 -68zM173 539q-24 0 -39 16t-15 40t15 40.5t39 16.5q23 0 38.5 -16t15.5 -40 q0 -25 -15.5 -41t-38.5 -16zM352 539q-24 0 -39 16t-15 40t15 40.5t39 16.5q23 0 38.5 -16t15.5 -40q0 -25 -15.5 -41t-38.5 -16z"/>
<glyph glyph-name="divide" horiz-adv-x="559" unicode="÷" d="M280 107q-25 0 -42.5 17t-17.5 42q0 24 17.5 41.5t42.5 17.5t42 -17.5t17 -41.5q0 -25 -17 -42t-42 -17zM280 408q-25 0 -42.5 17.5t-17.5 41.5q0 25 17.5 42t42.5 17t42 -17t17 -42q0 -24 -17 -41.5t-42 -17.5zM53 298v36h453v-36h-453z"/>
<glyph glyph-name="oslash" horiz-adv-x="526" unicode="ø" d="M133 230q0 -70 16 -120l215 272q-35 61 -105 61q-126 0 -126 -213zM268 17q126 0 126 213q0 72 -17 120l-214 -271q35 -62 105 -62zM81 -26h-38l62 79q-67 65 -67 175q0 103 65 171t161 68q78 0 134 -42l48 60h38l-63 -80q67 -65 67 -173q0 -104 -64.5 -172t-159.5 -68 q-78 0 -136 42z"/>
<glyph glyph-name="ugrave" horiz-adv-x="551" unicode="ù" d="M282 533l-89 89q-41 41 -41 67q0 17 11.5 28.5t27.5 11.5q18 0 31 -16t29 -55l54 -125h-23zM211 -8q-56 0 -88 36t-32 102v261q0 24 -15.5 34t-58.5 11v21l158 5v-299q0 -63 22 -90.5t72 -27.5q63 0 112 66v280q0 23 -16 33.5t-58 11.5v21l158 5v-405q0 -19 15.5 -27 t57.5 -9v-21h-155v83q-78 -91 -172 -91z"/>
<glyph glyph-name="uacute" horiz-adv-x="551" unicode="ú" d="M211 -8q-56 0 -88 36t-32 102v261q0 24 -15.5 34t-58.5 11v21l158 5v-299q0 -63 22 -90.5t72 -27.5q63 0 112 66v280q0 23 -16 33.5t-58 11.5v21l158 5v-405q0 -19 15.5 -27t57.5 -9v-21h-155v83q-78 -91 -172 -91zM220 533l54 125q16 39 29 55t31 16q17 0 28 -11.5 t11 -28.5q0 -26 -41 -67l-89 -89h-23z"/>
<glyph glyph-name="ucircumflex" horiz-adv-x="551" unicode="û" d="M211 -8q-56 0 -88 36t-32 102v261q0 24 -15.5 34t-58.5 11v21l158 5v-299q0 -63 22 -90.5t72 -27.5q63 0 112 66v280q0 23 -16 33.5t-58 11.5v21l158 5v-405q0 -19 15.5 -27t57.5 -9v-21h-155v83q-78 -91 -172 -91zM131 533l125 183h21l117 -183h-23l-108 98l-108 -98 h-24z"/>
<glyph glyph-name="udieresis" horiz-adv-x="551" unicode="ü" d="M211 -8q-56 0 -88 36t-32 102v261q0 24 -15.5 34t-58.5 11v21l158 5v-299q0 -63 22 -90.5t72 -27.5q63 0 112 66v280q0 23 -16 33.5t-58 11.5v21l158 5v-405q0 -19 15.5 -27t57.5 -9v-21h-155v83q-78 -91 -172 -91zM173 539q-24 0 -39 16t-15 40t15 40.5t39 16.5 q23 0 38.5 -16t15.5 -40q0 -25 -15.5 -41t-38.5 -16zM352 539q-24 0 -39 16t-15 40t15 40.5t39 16.5q23 0 38.5 -16t15.5 -40q0 -25 -15.5 -41t-38.5 -16z"/>
<glyph glyph-name="yacute" horiz-adv-x="489" unicode="ý" d="M255 533l54 125q16 39 29 55t31 16q17 0 28 -11.5t11 -28.5q0 -26 -41 -67l-89 -89h-23zM240 -1l-162 368q-17 39 -33.5 53.5t-50.5 18.5v20h228v-20q-64 -4 -64 -36q0 -11 6 -24l117 -281l94 233q16 42 16 61q0 21 -15.5 31.5t-50.5 15.5v20h178v-20q-51 -7 -83 -84 l-162 -391q-38 -93 -75.5 -129t-82.5 -36q-34 0 -55 19.5t-21 46.5q0 25 14 41.5t39 16.5q22 0 36.5 -15.5t14.5 -38.5q0 -24 -13 -38q29 2 56.5 35t62.5 120z"/>
<glyph glyph-name="thorn" horiz-adv-x="531" unicode="þ" d="M272 18q58 0 92 57t34 160q0 84 -33.5 137t-91.5 53q-61 0 -113 -57v-264q27 -86 112 -86zM160 707v-312q72 72 150 72q85 0 133 -63t48 -164q0 -106 -56.5 -176.5t-150.5 -70.5q-63 0 -124 33v-159q0 -22 19.5 -29.5t75.5 -8.5v-21h-252v21q44 1 58.5 8.5t14.5 29.5v765 q0 26 -16.5 37.5t-64.5 12.5v21z"/>
<glyph glyph-name="OE" horiz-adv-x="1035" unicode="Œ" d="M418 29q95 0 95 58v504q0 59 -99 59q-133 0 -194.5 -71.5t-61.5 -240.5q0 -309 260 -309zM429 0q-182 0 -281 90.5t-99 237.5q0 70 22.5 131.5t66.5 111t118 78.5t169 29h530l3 -200l-22 -1q-34 97 -72 134.5t-119 37.5h-137v-283h61q62 0 91.5 24t48.5 101h20v-278h-20 q-19 77 -48 100.5t-92 23.5h-61v-308h137q95 0 141.5 43t81.5 146l22 -1l-5 -217h-556z"/>
<glyph glyph-name="oe" horiz-adv-x="836" unicode="œ" d="M604 443q-104 0 -116 -167l216 3q2 22 2 33q0 61 -26 96t-76 35zM394 230q0 213 -135 213q-126 0 -126 -213q0 -109 36 -161t99 -52q126 0 126 213zM611 -8q-113 0 -172 88q-64 -88 -175 -88q-100 0 -163 65.5t-63 170.5q0 103 65 171t161 68q118 0 180 -89q63 89 167 89 q89 0 138 -56.5t49 -138.5q0 -3 -0.5 -9.5t-0.5 -9.5h-310v-17v-1q0 -87 41 -142t116 -55q43 0 75.5 21.5t66.5 64.5l16 -13q-71 -119 -191 -119z"/>
<glyph glyph-name="Scaron" horiz-adv-x="553" unicode="Š" d="M52 -19v230h23q42 -97 93.5 -147.5t121.5 -50.5q72 0 110 39.5t38 90.5q0 60 -39.5 91t-141.5 67q-92 33 -122 52q-70 45 -70 134q0 94 64.5 150t162.5 56q74 0 138 -27l32 32h17v-205h-23q-61 172 -180 172q-55 0 -91.5 -33.5t-36.5 -91.5q0 -56 39 -84.5t133 -60.5 q37 -12 56.5 -19.5t49.5 -24t45 -34t27 -46.5t12 -66q0 -40 -12.5 -77.5t-38 -70t-71.5 -52.5t-107 -20q-83 0 -155 36l-56 -40h-18zM281 757l-117 183h24l107 -98l109 98h23l-125 -183h-21z"/>
<glyph glyph-name="scaron" horiz-adv-x="411" unicode="š" d="M46 -8v158h21q42 -74 76 -103.5t81 -29.5q41 0 64 23.5t23 54.5q0 36 -26 57t-96 41q-76 22 -108 51t-32 79q0 64 44 104t117 40q55 0 99 -27l20 27h17v-140h-21q-36 63 -63.5 89.5t-66.5 26.5q-36 0 -59.5 -21.5t-23.5 -55.5q0 -31 27 -50.5t90 -37.5q74 -21 106.5 -51 t32.5 -83q0 -65 -40 -108.5t-115 -43.5q-27 0 -61.5 9.5t-56.5 23.5l-32 -33h-17zM204 533l-117 183h24l107 -98l109 98h23l-125 -183h-21z"/>
<glyph glyph-name="Ydieresis" horiz-adv-x="655" unicode="Ÿ" d="M260 763q-24 0 -39 16t-15 40t15 40.5t39 16.5q23 0 38.5 -16t15.5 -40q0 -25 -15.5 -41t-38.5 -16zM439 763q-24 0 -39 16t-15 40t15 40.5t39 16.5q23 0 38.5 -16t15.5 -40q0 -25 -15.5 -41t-38.5 -16zM361 331l122 210q31 54 31 73q0 18 -18 27.5t-60 15.5v21h229v-21 q-49 -9 -76.5 -30.5t-64.5 -83.5l-146 -244v-219q0 -29 23 -42t87 -15v-23h-314v23q64 2 87 15t23 42v204l-174 301q-20 35 -41 49.5t-65 22.5v21h292v-21q-88 -4 -88 -39q0 -16 12 -37z"/>
<glyph glyph-name="circumflex" horiz-adv-x="299" unicode="ˆ" d="M18 533l125 183h21l117 -183h-23l-108 98l-108 -98h-24z"/>
<glyph glyph-name="tilde" horiz-adv-x="331" unicode="˜" d="M14 531q11 63 32 91.5t63 28.5q25 0 74.5 -24t65.5 -24q30 0 46 59h23q-11 -62 -33 -91t-62 -29q-26 0 -75.5 23.5t-64.5 23.5q-31 0 -46 -58h-23z"/>
<glyph glyph-name="enspace" horiz-adv-x="500" unicode=" "/>
<glyph glyph-name="emspace" horiz-adv-x="1000" unicode=" "/>
<glyph glyph-name="thinspace" horiz-adv-x="133" unicode=" "/>
<glyph glyph-name="endash" horiz-adv-x="540" unicode="–" d="M55 236v37h430v-37h-430z"/>
<glyph glyph-name="emdash" horiz-adv-x="790" unicode="—" d="M55 236v37h680v-37h-680z"/>
<glyph glyph-name="quoteleft" horiz-adv-x="224" unicode="‘" d="M116 447q-32 0 -50.5 21t-18.5 55q0 109 149 173l11 -19q-52 -24 -82.5 -58t-35.5 -69l5 -2q14 9 28 9q22 0 36 -14.5t14 -36.5q0 -24 -16 -41.5t-40 -17.5z"/>
<glyph glyph-name="quotesinglbase" horiz-adv-x="224" unicode="‚" d="M30 -147l-12 19q53 25 83.5 59t34.5 68l-5 3q-12 -10 -28 -10q-21 0 -35.5 15t-14.5 36q0 24 16.5 42t40.5 18q31 0 50 -21t19 -56q0 -107 -149 -173z"/>
<glyph glyph-name="quotedblleft" horiz-adv-x="405" unicode="“" d="M116 447q-32 0 -50.5 21t-18.5 55q0 109 149 173l11 -19q-52 -24 -82.5 -58t-35.5 -69l5 -2q14 9 28 9q22 0 36 -14.5t14 -36.5q0 -24 -16 -41.5t-40 -17.5zM296 447q-31 0 -50 21t-19 55q0 109 149 173l12 -19q-53 -24 -83.5 -58t-34.5 -69l5 -2q13 9 28 9 q22 0 36 -14.5t14 -36.5q0 -24 -16.5 -41.5t-40.5 -17.5z"/>
<glyph glyph-name="quotedblright" horiz-adv-x="405" unicode="”" d="M30 442l-12 19q53 25 83.5 59t34.5 68l-5 3q-12 -10 -28 -10q-21 0 -35.5 15t-14.5 36q0 24 16.5 42t40.5 18q31 0 50 -21t19 -56q0 -107 -149 -173zM210 442l-11 19q52 25 82.5 59t35.5 68l-5 3q-13 -10 -28 -10q-21 0 -35.5 15t-14.5 36q0 25 16 42.5t40 17.5 q32 0 50.5 -21t18.5 -56q0 -108 -149 -173z"/>
<glyph glyph-name="dagger" horiz-adv-x="534" unicode="†" d="M258 -106q-3 66 -21 229t-24 180l34 65q8 16 8 31q0 50 -56 50q-23 0 -61.5 -17.5t-59.5 -17.5q-19 0 -33.5 9.5t-14.5 27.5q0 22 21 34.5t56 12.5q51 0 149 -50l3 4l-17 97q-19 97 -19 113q0 28 11.5 45t32.5 17t32.5 -17t11.5 -45q0 -16 -19 -113l-17 -97l3 -4 q98 50 149 50q35 0 56 -12.5t21 -34.5q0 -18 -14.5 -27.5t-33.5 -9.5q-21 0 -59.5 17.5t-61.5 17.5q-56 0 -56 -50q0 -15 8 -31l34 -65q-6 -17 -24 -180t-21 -229h-18z"/>
<glyph glyph-name="daggerdbl" horiz-adv-x="534" unicode="‡" d="M267 -106q-21 0 -32.5 16.5t-11.5 43.5q0 12 19 109l17 89l-3 4q-94 -49 -148 -49q-36 0 -57 12t-21 35q0 19 14.5 28.5t33.5 9.5q21 0 59.5 -17.5t61.5 -17.5q56 0 56 42q0 19 -9 42l-26 68l26 69q9 22 9 40q0 44 -56 44q-23 0 -61.5 -17.5t-59.5 -17.5q-19 0 -33.5 9.5 t-14.5 27.5q0 22 21.5 34.5t56.5 12.5q57 0 148 -49l3 4l-17 90q-19 85 -19 108q0 27 11.5 43.5t32.5 16.5t32.5 -16.5t11.5 -43.5q0 -11 -19 -108l-17 -90l3 -4q91 49 148 49q35 0 56.5 -12.5t21.5 -34.5q0 -18 -14.5 -27.5t-33.5 -9.5q-21 0 -59.5 17.5t-61.5 17.5 q-56 0 -56 -42q0 -20 9 -42l26 -69l-26 -68q-9 -23 -9 -42q0 -42 56 -42q23 0 61.5 17.5t59.5 17.5q19 0 33.5 -9.5t14.5 -28.5q0 -22 -21.5 -34.5t-56.5 -12.5q-54 0 -148 49l-3 -4l17 -89q19 -97 19 -109q0 -27 -11.5 -43.5t-32.5 -16.5z"/>
<glyph glyph-name="ellipsis" horiz-adv-x="657" unicode="…" d="M113 -16q-25 0 -42.5 17.5t-17.5 41.5q0 25 17.5 42t42.5 17q24 0 41.5 -17t17.5 -42q0 -24 -17.5 -41.5t-41.5 -17.5zM329 -16q-25 0 -42.5 17.5t-17.5 41.5q0 25 17.5 42t42.5 17t42 -17t17 -42q0 -24 -17 -41.5t-42 -17.5zM546 -16q-25 0 -42.5 17.5t-17.5 41.5 q0 25 17.5 42t42.5 17q24 0 41.5 -17t17.5 -42q0 -24 -17.5 -41.5t-41.5 -17.5z"/>
<glyph glyph-name="guilsinglleft" horiz-adv-x="300" unicode="‹" d="M234 30l-174 165q-19 19 -19 29t19 29l174 166l17 -13l-128 -182l128 -183z"/>
<glyph glyph-name="guilsinglright" horiz-adv-x="300" unicode="›" d="M67 30l-18 12l128 182l-128 183l18 12l173 -166q20 -19 20 -29t-20 -29z"/>
<glyph glyph-name="fraction" horiz-adv-x="573" unicode="⁄" d="M20 -57l256 371l236 344h40l-237 -344l-254 -371h-41z"/>
<glyph glyph-name="Euro" horiz-adv-x="651" unicode="€" d="M425 246h-205q15 -96 68.5 -151t135.5 -55q106 0 166 109l25 -15q-40 -69 -91 -109.5t-132 -40.5q-118 0 -188 73.5t-87 188.5h-87v29h84q-1 13 -1 39q0 30 4 54h-87v30h92q25 110 104 182.5t190 72.5q84 0 138 -39t54 -92q0 -28 -16.5 -48.5t-42.5 -20.5q-29 0 -47 17.5 t-18 48.5q0 19 11.5 36t27.5 25q-13 19 -42.5 32.5t-67.5 13.5q-77 0 -129.5 -56.5t-65.5 -171.5h207v-30h-210q-1 -14 -1 -44q0 -19 2 -49h209v-29z"/>
<glyph glyph-name="trademark" horiz-adv-x="708" unicode="™" d="M98 419v18q47 1 47 19v203h-11q-27 0 -42 -17t-29 -55h-16l4 91h235l4 -91h-16q-11 37 -27 54.5t-44 17.5h-11v-203q0 -18 47 -19v-18h-141zM321 419v16q24 3 32 13.5t8 36.5v146q0 29 -40 30v17h110l66 -188h6l65 188h107v-17q-40 -3 -40 -20v-185q0 -18 40 -19v-18 h-122v18q21 1 27.5 5t6.5 14v184h-9l-78 -221h-24l-81 221h-11v-155q0 -26 7.5 -36t31.5 -14v-16h-102z"/>
<glyph glyph-name="minus" horiz-adv-x="523" unicode="−" d="M53 298v36h417v-36h-417z"/>
</font>
</defs>
</svg>
